<?xml version="1.0" encoding="utf-8"?>
<!-- Generator: Adobe Illustrator 24.2.0, SVG Export Plug-In . SVG Version: 6.00 Build 0)  -->
<svg version="1.1" id="レイヤー_1" xmlns="http://www.w3.org/2000/svg" xmlns:xlink="http://www.w3.org/1999/xlink" x="0px"
	 y="0px" viewBox="0 0 225.3 25" style="enable-background:new 0 0 225.3 25;" xml:space="preserve">
<style type="text/css">
	.st0{enable-background:new    ;}
	.st1{fill:#172A4E;}
	.st2{fill:#CD431A;}
</style>
<g id="グループ_1415" transform="translate(-394 -24)">
	<g class="st0">
		<path class="st1" d="M547.9,35.5h2.9c1.8,0,3.2,0.5,3.2,2.2c0,0.8-0.5,1.7-1.2,1.9v0.1c1,0.2,1.7,0.9,1.7,2.1
			c0,1.8-1.5,2.6-3.4,2.6h-3.2V35.5z M550.7,39.1c1.1,0,1.6-0.5,1.6-1.2c0-0.8-0.5-1.1-1.6-1.1h-1.1v2.3H550.7z M550.9,43
			c1.2,0,1.9-0.4,1.9-1.4c0-0.9-0.6-1.2-1.9-1.2h-1.2V43C549.7,43,550.9,43,550.9,43z"/>
		<path class="st1" d="M555.4,47l0.3-1.4c0.1,0,0.3,0.1,0.5,0.1c0.7,0,1.1-0.4,1.3-1l0.1-0.4l-2.6-6.6h1.8l1.1,3.1
			c0.2,0.6,0.4,1.2,0.6,1.9h0.1c0.2-0.6,0.3-1.3,0.5-1.9l0.9-3.1h1.7l-2.4,6.9c-0.6,1.6-1.3,2.5-2.8,2.5
			C555.9,47.1,555.7,47.1,555.4,47z"/>
	</g>
</g>
<g class="st0">
	<path class="st2" d="M2.8,13.5c-0.9-0.7-1.4-1-2.3-1.3C0.2,12,0,11.7,0,11.4c0-0.5,0.4-1,1-1c0.2,0,1.3,0.1,2.9,1.2
		c0.3,0.2,0.4,0.5,0.4,0.8c0,0.6-0.4,1.1-1,1.1C3.2,13.7,3,13.6,2.8,13.5z M1.5,22.5c-0.6,0-1.1-0.5-1.1-1c0-0.2,0.1-0.4,0.2-0.6
		c1.1-1.5,2-3.3,2.5-4.9c0.1-0.4,0.5-0.6,0.8-0.6c0.5,0,1,0.4,1,0.9c0.1,0.5-1.1,3.6-2.4,5.6C2.3,22.3,1.9,22.5,1.5,22.5z M3.5,9.1
		C2.8,8.3,2.2,7.8,1.4,7.4C1.2,7.2,1,7,1,6.8c0-0.5,0.5-1,1.1-1c0.7,0,3.1,1.5,3.1,2.5c0,0.6-0.5,1.1-1,1.1C4,9.4,3.7,9.3,3.5,9.1z
		 M10.2,16.4c-0.9,0-1.8,0-2.6-0.1c-1.4-0.1-2.1-0.9-2.2-2c0-0.6-0.1-1.1-0.1-1.7c0-0.7,0-1.4,0.1-2.1c0-0.9,0.6-1.9,2.1-2
		c0.8,0,1.7-0.1,2.6-0.1V5.8c0-0.6,0.5-0.9,1-0.9s1,0.3,1,0.9v2.6c1,0,1.9,0,2.9,0.1c1.2,0,2,1,2,1.8c0.1,0.6,0.1,1.3,0.1,1.9
		s0,1.3-0.1,1.9c-0.1,1-0.8,1.9-2.1,2c-0.9,0-1.8,0.1-2.8,0.1v5.4c0,0.5-0.5,0.8-1,0.8s-1-0.3-1-0.8v-5.2H10.2z M10.2,10.4
		c-0.7,0-1.4,0-1.9,0c-0.9,0-1,0.6-1,2.1c0,0.4,0,0.9,0,1.3c0.1,0.8,0.3,0.9,2.9,0.9C10.2,14.7,10.2,10.4,10.2,10.4z M12.2,14.7
		c2.6,0,3,0,3.1-0.9c0-0.5,0-0.9,0-1.3s0-0.9,0-1.2c-0.1-0.9-0.5-0.9-3.1-0.9C12.2,10.4,12.2,14.7,12.2,14.7z"/>
	<path class="st2" d="M20.4,21.4c-0.4,0-0.9-0.3-0.9-0.8c0-0.1,0-0.3,0.1-0.5c0.5-0.9,0.9-2.3,1-3.5c0-0.5,0.4-0.7,0.7-0.7
		c0.4,0,0.8,0.3,0.8,0.9c0,0.5-0.5,3.1-1.1,4.1C21,21.3,20.7,21.4,20.4,21.4z M22.7,21.8l0.1-6.9c-0.9,0.1-2,0.3-2.1,0.3
		c-0.5,0-0.7-0.4-0.7-0.8s0.2-0.7,0.6-0.7c0.2,0,0.5,0,0.8-0.1c0.3-0.4,0.7-0.9,1.1-1.5c-0.6-0.6-1.7-1.5-2.1-1.9
		c-0.2-0.2-0.3-0.4-0.3-0.7c0-0.4,0.3-0.8,0.7-0.8c0.1,0,0.2,0,0.5,0.2c0.5-0.9,1.2-2.4,1.5-3.4c0.1-0.4,0.4-0.6,0.7-0.6
		c0.5,0,0.9,0.3,0.9,0.8c0,0.7-1.4,3.3-1.9,4.1c0.3,0.3,0.6,0.6,0.9,0.8c0.6-1,1.1-2.1,1.4-2.9c0.1-0.4,0.4-0.5,0.7-0.5
		c0.5,0,0.9,0.4,0.9,0.9s-1.6,3.2-3,5.2c0.6-0.1,1.2-0.1,1.7-0.2C25,13,25,12.8,24.9,12.7c-0.1-0.2-0.1-0.3-0.1-0.4
		c0-0.3,0.3-0.6,0.6-0.6c1,0,1.7,2.4,1.7,2.7c0,0.6-0.4,0.9-0.8,0.9s-0.6-0.2-0.7-1c-0.3,0.1-0.7,0.1-1.2,0.2v7.2
		c0,0.6-0.4,0.9-0.9,0.9C23.1,22.7,22.7,22.4,22.7,21.8L22.7,21.8z M25.3,19.1c0-0.8-0.2-1.6-0.5-2.3c-0.1-0.1-0.1-0.3-0.1-0.4
		c0-0.4,0.3-0.6,0.7-0.6c1.2,0,1.6,3.1,1.6,3.1c0,0.6-0.5,0.9-0.9,0.9C25.7,19.9,25.3,19.7,25.3,19.1z M32.7,20.2
		c0,0.7,0.6,0.8,1.6,0.8c1.8,0,1.9-0.7,1.9-1.4c0-0.5,0.4-0.8,0.8-0.8c0.3,0,0.9,0.1,0.9,0.9c0,2.2-1.3,2.8-3.8,2.8
		c-2.2,0-3.1-0.6-3.1-2.1v-1c-3,0-3.9,0-3.9-1.8c0-0.4,0-1.1,0-1.7c0-2.7,0.2-3,3.9-3V12c-2.7,0-3.6-0.1-3.7-1.7c0-0.3,0-0.9,0-1.4
		c0-0.6,0-1.1,0-1.4c0-1,0.4-1.7,1.8-1.7c0.9,0,1.9,0,2.8,0c1,0,2,0,2.8,0c1.1,0,1.6,0.8,1.7,1.6c0,0.3,0,0.9,0,1.4
		c0,2.2,0,3.1-1.8,3.2c-0.7,0-1.4,0-2,0v0.9c0.8,0,1.6,0,2.5,0.1c1.1,0,1.6,0.7,1.6,1.6c0,0.3,0,0.9,0,1.4c0,2.2,0,3.2-1.8,3.3
		c-0.8,0-1.6,0-2.4,0v0.9H32.7z M31.1,16.7h-2.3c0,1.2,0,1.3,0.7,1.3c0.5,0,1.1,0,1.6,0C31.1,18,31.1,16.7,31.1,16.7z M31.1,14.3
		c-2.3,0-2.3,0-2.3,0.7v0.5h2.3V14.3z M31.1,7.1c-1.9,0-2,0-2.1,0.7c0,0.1,0,0.3,0,0.5h2.1V7.1z M31.1,9.4H29c0,0.3,0,0.5,0,0.7
		c0,0.6,0.2,0.6,2.1,0.6V9.4z M32.7,16.8v1.3c2.3,0,2.5,0,2.5-0.7c0-0.2,0-0.4,0-0.7h-2.5V16.8z M32.7,9.4v1.3c0.5,0,1,0,1.5,0
		c0.7,0,0.7-0.4,0.7-1.3H32.7z M35.3,15.6c0-0.2,0-0.4,0-0.6c0-0.6-0.1-0.7-2.5-0.7v1.2L35.3,15.6z M34.9,8.2c0-0.2,0-0.4,0-0.6
		c0-0.4-0.1-0.5-0.7-0.5c-0.5,0-1,0-1.5-0.1v1.2H34.9z"/>
</g>
<g class="st0">
	<path class="st2" d="M47.6,8.9c-2,0-3.7,2-3.7,5.6c0,3.1,1.3,4.4,3.2,4.4c0.9,0,1.7-0.3,2.1-0.7c0-1.4,0.1-3,0.4-3.6
		c0.2-0.5,0.5-0.8,1-0.8c1,0,2.1,0.9,2.1,1.7c0,0.5-0.3,1.6-0.8,2.6c0,1.4,0.5,3.5,0.5,4.5c0,1.3-1.3,2.3-3.6,2.4l-0.1-0.1
		c0.3-1.5,0.5-3.4,0.5-4.4h-0.1c-0.7,0.6-1.7,1.1-3.2,1.1c-3.5,0-5.8-2.5-5.8-6.6c0-4.6,3.3-8.5,8-8.5c2.8,0,4.5,1.4,4.5,2.9
		c0,0.9-0.7,1.7-2.2,1.9C49.9,9.7,48.8,8.9,47.6,8.9z"/>
	<path class="st2" d="M54.6,14.9c0-4.8,3.2-8.5,7.4-8.5c3.3,0,5.9,2.5,5.9,6.7c0,4.8-3.2,8.4-7.4,8.4C57.3,21.5,54.6,19.1,54.6,14.9
		z M58.5,14.5c0,3.2,1.2,4.6,2.6,4.6c1.4,0,3-1.9,3-5.5c0-3.3-1.2-4.7-2.6-4.7C60.1,8.9,58.5,10.8,58.5,14.5z"/>
	<path class="st2" d="M71.7,15.4C71,13.5,70.4,9.9,70.4,8c0-2,1.1-3.2,2.7-3.2c1.1,0,1.8,0.7,1.8,1.9c0,2.3-1.4,4.2-1.6,9.3
		C72.7,16.2,72,16,71.7,15.4z M72.7,17.8c1,0,1.9,0.8,1.9,1.9c0,1-0.8,1.8-1.9,1.8s-1.8-0.8-1.8-1.8C70.9,18.7,71.7,17.8,72.7,17.8z
		"/>
	<path class="st2" d="M77.7,8.5c0-0.9,1.4-2.1,3.4-2.1c1.4,0,2.5,1,2.5,2.8c0,0.9-0.2,2.3-0.3,3.9c0.5,0.1,1.3,0.1,2.1,0.1
		c1.1,0,2.2-0.2,2.8-0.5c0.1-1.9,0.4-4.2,0.7-5.2c0.2-0.7,0.5-1.1,1.3-1.1c1.1,0,2.2,0.9,2.2,1.8s-0.5,2.9-1.2,4.9
		c-0.1,0.6-0.1,1.4-0.1,3c0,2.5,0.2,3.1,0.7,3.1c0.4,0,1-0.2,1.4-0.6c0.2,0.1,0.4,0.5,0.4,0.8c0,1-1.2,2.1-2.9,2.1
		c-1.8,0-2.9-1.3-2.9-3.7c0-1,0.1-1.8,0.2-2.3h-0.1c-0.4,0.2-1.3,0.4-2.2,0.4c-0.9,0-1.9-0.2-2.5-0.3c-0.1,1.5,0,3.5,0,4.3
		s-0.9,1.7-1.9,1.7c-0.9,0-1.9-1-1.9-2.7c0-1,0.3-2.4,0.6-3.5c0.2-1.6,0.3-3.2,0.3-4.8C80.3,9.4,80,9,79.4,9c-0.3,0-0.9,0.1-1.3,0.4
		C78,9.2,77.7,8.9,77.7,8.5z"/>
	<path class="st2" d="M105,9.2c0.4-1.9,1.1-2.9,1.7-2.9c1.1,0,2.3,1.3,2.3,2.3c0,0.5-0.5,1.8-1,2.8c-0.3,1.1-0.4,2.7-0.4,4.3
		c0,2.8,0.4,3.6,1.1,3.6c0.3,0,1-0.3,1.3-0.6c0.1,0.2,0.3,0.5,0.3,0.8c0,1-1.2,2.1-2.9,2.1c-1.6,0-2.9-1-3.1-3.5h-0.1
		c-0.7,2.3-2.3,3.5-4,3.5c-2.9,0-4.8-2.2-4.8-6.2c0-4.8,2.9-8.9,6.5-8.9C103.4,6.4,104.5,7.4,105,9.2L105,9.2z M104.5,11.1
		c-0.4-1.1-1.3-1.8-2.2-1.8c-1.6,0-3.2,2.3-3.2,5.7c0,2.7,0.8,3.7,2,3.7c1.3,0,2.3-1.3,3-3.9C104.2,13.8,104.3,12,104.5,11.1z"/>
	<path class="st2" d="M111.2,8.5c0-0.9,1.4-2.1,3.3-2.1c1.5,0,2.5,1,2.5,2.7c0,0.9-0.1,1.4-0.2,2.2h0.1c1.3-3.7,2.8-4.9,4.6-4.9
		c1.8,0,3.2,1.4,3.2,4.4c0,2.1-0.4,3.9-0.4,6.5c0,1.6,0.2,2,0.7,2c0.4,0,1-0.3,1.4-0.6c0.2,0.1,0.4,0.4,0.4,0.8c0,1-1.2,2.1-3,2.1
		s-3.1-1.2-3.1-3.8c0-1.7,0.4-3.5,0.4-5.5c0-1.5-0.5-2.2-1.2-2.2c-1.1,0-2.7,2.6-3.3,5.9c0,1.3,0.3,2.9,0.3,3.7c0,1.1-1,1.9-2.1,1.9
		c-0.9,0-1.8-1-1.8-3.2c0-2.3,0.6-5.1,0.6-7.7c0-1.2-0.2-1.7-0.8-1.7c-0.4,0-0.9,0.1-1.3,0.4C111.5,9.2,111.2,8.9,111.2,8.5z"/>
</g>
<g class="st0">
	<path class="st2" d="M135,9.9l-2.5-0.1c0,0.6-0.1,1.2-0.1,1.9c0.4,0,0.8,0,1.1,0c0.8,0,2,0,2,1.7c0,3.6-0.3,5.3-0.6,6.2
		c-0.5,1.7-1.6,2.4-2.7,2.4c-0.6,0-1.7-0.2-1.7-1.1c0-0.4,0.3-0.9,0.7-0.9c0.1,0,0.2,0,0.4,0.1s0.4,0.1,0.6,0.1c1,0,1.5-1.5,1.5-6.3
		c0-0.6-0.4-0.6-1.5-0.6c-0.3,3.1-0.9,6.2-2.8,8.7c-0.2,0.3-0.5,0.4-0.7,0.4c-0.5,0-1-0.4-1-0.9c0-0.2,0-0.3,0.2-0.5
		c2.4-3.1,2.6-7.2,2.8-11.1h-1.5l0,0c-0.6,0-0.9-0.4-0.9-0.8c0-0.5,0.3-0.9,0.9-0.9l0,0h2V6c0-0.6,0.5-0.9,1-0.9s1,0.3,1,0.9v2.2
		h1.9l0,0c0.6,0,0.9,0.4,0.9,0.9S135.6,9.9,135,9.9L135,9.9z M138.2,9.3c-0.4,0.7-0.9,1.4-1.4,2.1c-0.2,0.3-0.5,0.5-0.8,0.5
		c-0.5,0-1-0.4-1-0.8c0-0.2,0.1-0.4,0.2-0.6c1.2-1.5,2-3.1,2.6-4.7c0.1-0.4,0.5-0.6,0.8-0.6c0.5,0,1,0.3,1,0.9
		c0,0.2-0.4,1.2-0.6,1.6h5.4l0,0c0.6,0,0.8,0.4,0.8,0.9c0,0.4-0.3,0.9-0.9,0.9h-6.1V9.3z M137.4,13.7c-0.9,0.2-0.9,0.2-0.9,0.2
		c-0.5,0-0.8-0.5-0.8-0.9s0.2-0.7,0.6-0.8c2.2-0.5,4.6-1.2,6.6-2.2c0.1-0.1,0.3-0.1,0.4-0.1c0.5,0,0.9,0.5,0.9,0.9
		c0,0.6-0.3,0.8-2.5,1.6c0,0.8,0.1,1.6,0.3,2.4c0.8-0.4,1.5-0.9,2.2-1.4c0.2-0.1,0.3-0.2,0.5-0.2c0.5,0,1,0.5,1,1
		c0,0.4-0.2,0.9-3.3,2.1c0.6,1.8,1.5,3.2,3,4.2c0.3,0.2,0.5,0.5,0.5,0.8c0,0.6-0.5,1.1-1.1,1.1c-1.1,0-4.3-3.4-4.6-9.4
		c-0.3,0.1-0.6,0.2-0.9,0.3v8.6c0,0.6-0.5,0.9-0.9,0.9c-0.5,0-0.9-0.3-0.9-0.9L137.4,13.7z"/>
</g>
<g id="グループ_1436" transform="translate(-32.465 -213.83)">
	<g id="グループ_1434" transform="translate(205.465 236.83)">
		<path id="パス_927" class="st1" d="M52.3-15.5c0,0-2-0.1-2.5-0.1c-2.2,0-3.5,0.1-4.6,1c-0.8,0.7-1.3,1.7-1.1,2.8H42V-9h2.1v7.7
			h5.5V-9h2.6v-1.9l0,0v-1h-2.7c0-0.2,0-0.4,0.1-0.5c0.2-0.2,0.5-0.3,1.2-0.3c0.3,0,1.1,0.1,1.1,0.1h0.2c-0.4-0.4-0.5-1-0.5-1.5
			C51.7-14.6,51.9-15.1,52.3-15.5z M41.5-3.8V-8c0.1-1-0.1-2-0.8-2.7c-0.9-1-2.7-1.4-5.7-1.4s-6.9,0.4-7.1,3.5v0.2h5.2v-0.2
			c0-0.7,0.9-0.8,1.7-0.8c0.5,0,0.9,0.1,1.3,0.4c0.1,0.1,0.1,0.2,0.1,0.4c0,0.4-0.3,0.6-1.2,0.7c-0.4,0.1-0.9,0.1-1.4,0.2
			c-2.7,0.3-6.3,0.6-6.3,3.5c0,0.4,0.1,0.9,0.3,1.2l0.2,0.3c0.1,0.2,0.2,0.3,0.4,0.4c1.2,0.9,2.6,1.4,4.1,1.3c1.5,0.1,2.9-0.3,4.1-1
			c0,0.2,0.1,0.4,0.2,0.7l0.1,0.1h5.8l-0.3-0.4C41.7-2.3,41.5-3.1,41.5-3.8L41.5-3.8z M34.3-3.8c-0.4,0-0.9-0.1-1.2-0.4
			C33-4.3,33-4.4,32.9-4.5c0-0.5,0.4-0.7,1.5-0.9c0.6-0.1,1.2-0.2,1.8-0.4c0,0.3,0,0.6,0,0.6C36.2-4.3,35.4-3.8,34.3-3.8L34.3-3.8z
			 M19.1-12.1c-4.2,0-7.3,2.3-7.3,5.5c0,0.4,0,0.8,0.2,1.2H4.9v-10.2h-6.1v14.2H13v-2c0,0.1,0.1,0.1,0.1,0.1c1.8,1.5,4,2.2,6.3,2.1
			c1.9,0.1,3.7-0.4,5.3-1.4l0.4-0.3c0.6-0.4,1.1-1,1.4-1.7l0.1-0.3h-5.2l-0.1,0.1c-0.5,0.5-1.2,0.7-2,0.6l-0.5,0.1
			c-0.8-0.1-1.5-0.7-1.7-1.5h9.7v-0.2c0.1-1.6-0.5-3.2-1.6-4.4C24-11.4,21.9-12.1,19.1-12.1L19.1-12.1z M17.2-8
			c0.3-0.8,1.1-1.2,2.3-1.2c0.6,0,1.2,0.2,1.6,0.6c0.2,0.2,0.3,0.4,0.4,0.7L17.2-8L17.2-8z"/>
	</g>
	<g id="グループ_1435" transform="translate(212.461 236.846)">
		<path id="パス_928" class="st1" d="M0.2-13.1l0.1,0.5C0-12.5-0.5-12.4-1-12.2l-0.1-0.6c0.1,0,0.3-0.1,0.5-0.1v-0.7H-1v-0.5h0.4
			v-0.7H-1v-0.5h1.4v0.5H0v0.7h0.3v0.5H0v0.6L0.2-13.1z M0.5-13.1v-0.5H1v0.5c0,0.1,0,0.2,0,0.4c0,0.1-0.1,0.2-0.1,0.4
			c-0.1,0.1-0.2,0.2-0.2,0.3c-0.2,0.2-0.3,0.3-0.4,0.3c0-0.1-0.1-0.1-0.2-0.2C0-11.9,0-12-0.1-12.1c0.2-0.1,0.4-0.3,0.5-0.4
			C0.4-12.7,0.5-12.9,0.5-13.1L0.5-13.1z M0.3-14.3h0.4c0.1-0.2,0.1-0.3,0.2-0.4H0.3v-0.5h0.8v-0.4h0.6v0.4h1v0.5H1.5l0,0l-0.2,0.4
			h0.6c0,0-0.1-0.1-0.2-0.2l0.4-0.2c0.3,0.3,0.6,0.6,0.8,0.9l-0.5,0.3c0-0.1-0.1-0.2-0.1-0.3c-0.3,0-1,0-1.9,0.1L0.3-14.3z
			 M1.1-11.9v-1.6h0.5v1.6H1.1z M2.3-12.2L2.3-12.2C2.4-12.2,2.4-12.2,2.3-12.2c0.1,0,0.1-0.1,0.1-0.1c0-0.1,0-0.2,0-0.4
			c0.1,0.1,0.3,0.2,0.4,0.2c0,0.2,0,0.3-0.1,0.5c0,0.1-0.1,0.2-0.2,0.2c-0.1,0-0.2,0.1-0.2,0.1H2.2c-0.1,0-0.2,0-0.3-0.1
			c-0.1-0.2-0.2-0.3-0.1-0.5v-1.3h0.5v1.3V-12.2L2.3-12.2L2.3-12.2z"/>
		<path id="パス_929" class="st1" d="M6.8-13.3l-0.2-0.1c0.2,0.4,0.5,0.7,0.8,1c-0.1,0.1-0.3,0.2-0.3,0.4
			c-0.3-0.2-0.6-0.5-0.7-0.8v0.4c0,0.1,0,0.2,0,0.3c0,0.1-0.1,0.2-0.2,0.2c-0.3,0.2-0.5,0.2-0.7,0.2c0-0.2-0.1-0.4-0.2-0.6
			c0.1,0,0.3,0,0.4,0c0,0,0.1,0,0.1-0.1l0,0v-2H4.9v-0.3H4.5v0.6h0.4v0.5H4.5v0.6l0.4-0.1v0.3c0.3-0.2,0.5-0.3,0.7-0.4l0.2,0.5
			c-0.4,0.2-0.7,0.4-0.9,0.6l-0.3-0.4c-0.1,0-0.5,0.1-1.1,0.3l-0.1-0.5c0.1,0,0.3-0.1,0.5-0.1v-0.8H3.5v-0.5h0.4v-0.6H3.5v-0.6h1.4
			v0.4h0.9v-0.7h0.6v0.7h0.5c-0.2-0.2-0.3-0.3-0.5-0.4l0.3-0.3c0.3,0.1,0.4,0.3,0.6,0.4L7-14.9h0.3v0.5h-1v0.1
			c0,0.2,0.1,0.4,0.1,0.6c0.2-0.2,0.3-0.4,0.4-0.6L7.3-14C7.1-13.6,6.9-13.4,6.8-13.3z M5.7-13.5l-0.5,0.2C5.1-13.6,5-13.8,4.8-14
			l0.5-0.2C5.5-14,5.6-13.8,5.7-13.5L5.7-13.5z"/>
	</g>
</g>
</svg>
