<?xml version="1.0" encoding="utf-8"?>
<!-- Generator: Adobe Illustrator 24.2.0, SVG Export Plug-In . SVG Version: 6.00 Build 0)  -->
<svg version="1.1" id="レイヤー_1" xmlns="http://www.w3.org/2000/svg" xmlns:xlink="http://www.w3.org/1999/xlink" x="0px"
	 y="0px" width="202.5px" height="21.2px" viewBox="0 0 202.5 21.2" style="enable-background:new 0 0 202.5 21.2;"
	 xml:space="preserve">
<style type="text/css">
	.st0{enable-background:new    ;}
	.st1{fill:#D84318;}
</style>
<g id="グループ_1415" transform="translate(-394 -24)">
	<g class="st0">
		<path d="M528.1,34.1h2.5c1.5,0,2.7,0.4,2.7,1.9c0,0.7-0.4,1.5-1,1.6v0.1c0.9,0.2,1.5,0.8,1.5,1.8c0,1.5-1.3,2.2-2.9,2.2h-2.7
			L528.1,34.1L528.1,34.1z M530.5,37.2c0.9,0,1.4-0.4,1.4-1c0-0.7-0.4-0.9-1.4-0.9h-0.9v2L530.5,37.2L530.5,37.2z M530.7,40.6
			c1,0,1.6-0.3,1.6-1.2c0-0.8-0.5-1-1.6-1h-1v2.2H530.7z"/>
		<path d="M534.6,44l0.3-1.2c0.1,0,0.3,0.1,0.4,0.1c0.6,0,0.9-0.3,1.1-0.9l0.1-0.3l-2.2-5.7h1.5l0.9,2.7c0.2,0.5,0.3,1,0.5,1.6h0.1
			c0.2-0.5,0.3-1.1,0.4-1.6l0.8-2.7h1.5l-2.1,5.9c-0.5,1.4-1.1,2.1-2.4,2.1C535,44.1,534.8,44.1,534.6,44z"/>
	</g>
</g>
<g id="グループ_1436" transform="translate(-32.465 -213.83)">
	<g id="グループ_1434" transform="translate(205.465 236.83)">
		<path id="パス_927" d="M27.3-18.6c0,0-1.9-0.1-2.4-0.1c-2.1,0-3.3,0.1-4.4,1c-0.8,0.7-1.2,1.6-1,2.7h-2v2.7h2V-5h5.2v-7.3h2.5
			v-1.8l0,0v-1h-2.6c0-0.2,0-0.4,0.1-0.5c0.2-0.2,0.5-0.3,1.1-0.3c0.3,0,1,0.1,1,0.1H27c-0.4-0.4-0.5-1-0.5-1.4
			C26.7-17.7,26.9-18.2,27.3-18.6z M17-7.5v-4c0.1-1-0.1-1.9-0.8-2.6c-0.9-1-2.6-1.3-5.4-1.3S4.3-15,4.1-12v0.2H9V-12
			c0-0.7,0.9-0.8,1.6-0.8c0.5,0,0.9,0.1,1.2,0.4C12-12.3,12-12.2,12-12c0,0.4-0.3,0.6-1.1,0.7c-0.4,0.1-0.9,0.1-1.3,0.2
			c-2.6,0.3-6,0.6-6,3.3c0,0.4,0.1,0.9,0.3,1.1L4-6.4C4.1-6.2,4.2-6.1,4.4-6c1.1,0.9,2.5,1.3,3.9,1.2c1.4,0.1,2.8-0.3,3.9-1
			c0,0.2,0.1,0.4,0.2,0.7L12.5-5H18l-0.3-0.4C17.2-6,17-6.8,17-7.5L17-7.5z M10.2-7.5c-0.4,0-0.9-0.1-1.1-0.4C9-7.9,9-8,8.9-8.1
			c0-0.5,0.4-0.7,1.4-0.9c0.6-0.1,1.1-0.2,1.7-0.4c0,0.3,0,0.6,0,0.6C12-7.9,11.2-7.5,10.2-7.5L10.2-7.5z M-4.3-15.4
			c-4,0-6.9,2.2-6.9,5.2c0,0.4,0,0.8,0.2,1.1h-6.8v-9.7h-5.8v13.5h13.5v-1.9C-10.1-7-10-7-10-7c1.7,1.4,3.8,2.1,6,2
			c1.8,0.1,3.5-0.4,5-1.3l0.4-0.3c0.6-0.4,1-1,1.3-1.6l0.1-0.3h-4.9l-0.1,0.1c-0.5,0.5-1.1,0.7-1.9,0.6l-0.5,0.1
			C-5.3-7.8-6-8.4-6.2-9.2H3v-0.2c0.1-1.5-0.5-3-1.5-4.2C0.4-14.7-1.6-15.4-4.3-15.4L-4.3-15.4z M-6.1-11.5c0.3-0.8,1-1.1,2.2-1.1
			c0.6,0,1.1,0.2,1.5,0.6c0.2,0.2,0.3,0.4,0.4,0.7L-6.1-11.5L-6.1-11.5z"/>
	</g>
	<g id="グループ_1435" transform="translate(212.461 236.846)">
		<path id="パス_928" d="M-22.6-16.3l0.1,0.5c-0.3,0.1-0.8,0.2-1.2,0.4l-0.1-0.6c0.1,0,0.3-0.1,0.5-0.1v-0.7h-0.4v-0.5h0.4V-18
			h-0.4v-0.5h1.3v0.5h-0.4v0.7h0.3v0.5h-0.3v0.6L-22.6-16.3z M-22.3-16.3v-0.5h0.5v0.5c0,0.1,0,0.2,0,0.4c0,0.1-0.1,0.2-0.1,0.4
			c-0.1,0.1-0.2,0.2-0.2,0.3c-0.2,0.2-0.3,0.3-0.4,0.3c0-0.1-0.1-0.1-0.2-0.2c-0.1,0-0.1-0.1-0.2-0.2c0.2-0.1,0.4-0.3,0.5-0.4
			C-22.4-15.9-22.3-16.1-22.3-16.3L-22.3-16.3z M-22.5-17.5h0.4c0.1-0.2,0.1-0.3,0.2-0.4h-0.6v-0.5h0.8v-0.4h0.6v0.4h1v0.5h-1.1l0,0
			l-0.2,0.4h0.6c0,0-0.1-0.1-0.2-0.2l0.4-0.2c0.3,0.3,0.6,0.6,0.8,0.9l-0.5,0.3c0-0.1-0.1-0.2-0.1-0.3c-0.3,0-1,0-1.8,0.1
			L-22.5-17.5z M-21.7-15.2v-1.5h0.5v1.5C-21.2-15.2-21.7-15.2-21.7-15.2z M-20.6-15.5L-20.6-15.5C-20.5-15.5-20.5-15.5-20.6-15.5
			C-20.5-15.5-20.5-15.5-20.6-15.5c0.1-0.2,0.1-0.3,0.1-0.5c0.1,0.1,0.3,0.2,0.4,0.2c0,0.2,0,0.3-0.1,0.5c0,0.1-0.1,0.2-0.2,0.2
			s-0.2,0.1-0.2,0.1h-0.1c-0.1,0-0.2,0-0.3-0.1c-0.1-0.2-0.2-0.3-0.1-0.5v-1.2h0.5L-20.6-15.5L-20.6-15.5L-20.6-15.5L-20.6-15.5z"/>
		<path id="パス_929" d="M-16.3-16.5l-0.2-0.1c0.2,0.4,0.5,0.7,0.8,1c-0.1,0.1-0.3,0.2-0.3,0.4c-0.3-0.2-0.6-0.5-0.7-0.8v0.4
			c0,0.1,0,0.2,0,0.3s-0.1,0.2-0.2,0.2c-0.3,0.2-0.5,0.2-0.7,0.2c0-0.2-0.1-0.4-0.2-0.6c0.1,0,0.3,0,0.4,0c0,0,0.1,0,0.1-0.1l0,0
			v-1.9h-0.9v-0.3h-0.4v0.6h0.4v0.5h-0.4v0.6l0.4-0.1v0.3c0.3-0.2,0.5-0.3,0.7-0.4l0.2,0.5c-0.4,0.2-0.7,0.4-0.9,0.6l-0.3-0.4
			c-0.1,0-0.5,0.1-1,0.3l-0.1-0.5c0.1,0,0.3-0.1,0.5-0.1v-0.8h-0.4v-0.5h0.4v-0.6h-0.4v-0.6h1.3v0.4h0.9v-0.7h0.6v0.7h0.5
			c-0.2-0.2-0.3-0.3-0.5-0.4l0.3-0.3c0.3,0.1,0.4,0.3,0.6,0.4l-0.3,0.3h0.3v0.5h-1v0.1c0,0.2,0.1,0.4,0.1,0.6
			c0.2-0.2,0.3-0.4,0.4-0.6l0.5,0.3C-16-16.8-16.2-16.6-16.3-16.5z M-17.3-16.7l-0.5,0.2c-0.1-0.3-0.2-0.5-0.4-0.7l0.5-0.2
			C-17.5-17.2-17.4-17-17.3-16.7L-17.3-16.7z"/>
	</g>
</g>
<g class="st0">
	<path class="st1" d="M5.9,10.4C5.3,9.8,3.8,9.1,2.7,8.6l1.1-1.5c1.1,0.4,2.5,1.1,3.3,1.6L5.9,10.4z M3.3,16.8
		c0.9-1.3,2.1-3.4,3.1-5.3l1.5,1.3C7.1,14.5,6,16.5,5,18.1L3.3,16.8z M4.8,2.5c1.1,0.4,2.5,1.1,3.2,1.7L6.9,5.9
		C6.2,5.3,4.8,4.5,3.7,4L4.8,2.5z M18.3,5.7v8h-2v-0.8h-2.2v5.4h-2v-5.4H10v1H8.1V5.7h4V2.5h2v3.2H18.3z M12.1,10.9V7.7H10v3.2H12.1
		z M16.3,10.9V7.7h-2.2v3.2H16.3z"/>
	<path class="st1" d="M22,12.7c-0.2,1.6-0.5,3.3-1,4.4c-0.3-0.2-1.1-0.6-1.5-0.7c0.5-1,0.7-2.5,0.9-3.9L22,12.7z M34.6,15.6
		c0.4,0.2,0.9,0.4,1.3,0.5c-0.2,1.6-0.6,2.2-2,2.2h-2c-1.7,0-2.1-0.5-2.1-2.4v-0.3h-1.6v1h-1.8v-5L25,12.2c-0.1-0.3-0.2-0.6-0.3-1
		l-0.8,0.1v7h-1.7v-6.9l-2.4,0.2l-0.1-1.7l1.2-0.1c0.3-0.3,0.5-0.6,0.8-1c-0.5-0.8-1.3-1.7-1.9-2.4l1-1.4c0.1,0.1,0.3,0.2,0.4,0.4
		c0.5-0.9,1-2.1,1.2-2.9L24,3.1c-0.6,1.2-1.3,2.5-1.9,3.5c0.2,0.2,0.4,0.5,0.5,0.7c0.6-1,1.1-1.9,1.5-2.7l1.6,0.8
		c-0.9,1.4-2.1,3.1-3.2,4.5l1.5-0.1c-0.2-0.4-0.4-0.7-0.5-1.1L25,7.9c0.6,1,1.2,2.3,1.4,3.3V9.6h3.3V8.9h-3.1V3.2h8.2v5.8h-3.2v0.7
		h3.6v6H34.6z M25.5,12.3c0.4,0.9,0.8,2.2,0.9,3l-1.5,0.5c-0.1-0.8-0.4-2.1-0.8-3.1L25.5,12.3z M28.2,11.1v0.9h1.6v-0.9H28.2z
		 M29.8,14.2v-0.9h-1.6v0.9H29.8z M28.3,5.4h1.4V4.6h-1.4V5.4z M29.8,7.6V6.7h-1.4v0.9H29.8z M33.1,4.6h-1.5v0.9h1.5V4.6z M33.1,6.7
		h-1.5v0.9h1.5V6.7z M31.6,11.1v0.9h1.7v-0.9H31.6z M31.6,13.3v0.9h1.7v-0.9H31.6z M33.7,16.8c0.4,0,0.5-0.2,0.6-1.2h-2.7v0.3
		c0,0.7,0.1,0.9,0.6,0.9H33.7z"/>
</g>
<g>
	<path class="st1" d="M37.7,11.1c0-4.5,2.9-7.2,6.6-7.2c2,0,3.3,0.9,4.2,1.8L47,7.4c-0.7-0.6-1.4-1.1-2.7-1.1
		c-2.3,0-3.9,1.8-3.9,4.7c0,3,1.4,4.8,4,4.8c0.7,0,1.3-0.2,1.7-0.5v-2.7h-2.4v-2.2h5v6.2c-0.9,0.9-2.5,1.6-4.4,1.6
		C40.5,18.2,37.7,15.7,37.7,11.1z"/>
	<path class="st1" d="M51.4,11c0-4.5,2.5-7,6.1-7s6.1,2.6,6.1,7s-2.5,7.2-6.1,7.2S51.4,15.5,51.4,11z M60.8,11
		c0-2.9-1.3-4.7-3.3-4.7s-3.3,1.8-3.3,4.7s1.3,4.8,3.3,4.8S60.8,13.9,60.8,11z"/>
	<path class="st1" d="M66.8,16.4c0-1,0.7-1.8,1.7-1.8s1.7,0.8,1.7,1.8s-0.7,1.8-1.7,1.8S66.8,17.4,66.8,16.4z M67.2,6.4l-0.1-2.5
		h2.7l-0.1,2.6l-0.4,6.8h-1.8L67.2,6.4z"/>
	<path class="st1" d="M74.1,4.2h2.7v5.4H82V4.2h2.7v13.7H82V12h-5.2v5.9h-2.7C74.1,17.9,74.1,4.2,74.1,4.2z"/>
	<path class="st1" d="M94.9,14.4h-4.4l-1,3.5h-2.8l4.4-13.7h3.2l4.4,13.7h-2.9L94.9,14.4z M94.3,12.3l-0.4-1.5
		c-0.4-1.4-0.8-3-1.2-4.5h-0.1c-0.4,1.5-0.8,3-1.2,4.5L91,12.3H94.3z"/>
	<path class="st1" d="M100.8,4.2h2.8l4,7.3l1.4,3h0.1c-0.1-1.4-0.4-3.2-0.4-4.8V4.2h2.6v13.7h-2.8l-4-7.3l-1.4-2.9H103
		c0.1,1.5,0.3,3.2,0.3,4.8v5.4h-2.6L100.8,4.2L100.8,4.2z"/>
	<path class="st1" d="M120.7,9.6c-0.1,5.5-0.2,7.5-0.6,8.1c-0.3,0.5-0.6,0.6-1.1,0.7c-0.4,0.1-1.1,0.1-1.7,0.1
		c0-0.5-0.2-1.3-0.5-1.8c0.5,0.1,1,0.1,1.2,0.1s0.4-0.1,0.5-0.3c0.2-0.4,0.3-1.8,0.4-5.9h-1.2c-0.1,2.6-0.5,5.5-2.4,8
		c-0.4-0.4-1-0.9-1.5-1.2c1.9-2.5,2.1-5.3,2.1-7.6V7.1h-1.7V5.3h2.5V2.7h1.9v2.6h2.5v1.3c0.7-1.1,1.3-2.5,1.6-3.9l2,0.4
		c-0.1,0.6-0.3,1.1-0.5,1.7h5.3v1.8h-6c-0.5,1-1.1,1.9-1.7,2.5c-0.4-0.4-1.2-1-1.6-1.3c0.2-0.2,0.4-0.4,0.6-0.7h-3.1v1.7h3V9.6z
		 M130,11c-0.8,0.7-1.8,1.6-2.6,2.2c0.6,1.6,1.5,2.9,2.7,3.6c-0.5,0.4-1.1,1.2-1.4,1.7c-2.2-1.6-3.3-4.6-3.9-8.2
		c-0.2,0.1-0.4,0.2-0.6,0.3v8h-1.9v-7.3l-0.4,0.1c-0.3-0.5-0.8-1.2-1.2-1.7c2.4-0.5,5.4-1.7,6.9-2.9l1.4,1.1
		c-0.7,0.6-1.6,1.2-2.7,1.7c0.1,0.7,0.2,1.3,0.4,2c0.6-0.6,1.3-1.2,1.7-1.7L130,11z"/>
</g>
</svg>
