<?xml version="1.0" encoding="utf-8"?>
<!-- Generator: Adobe Illustrator 24.2.0, SVG Export Plug-In . SVG Version: 6.00 Build 0)  -->
<svg version="1.1" id="レイヤー_1" xmlns="http://www.w3.org/2000/svg" xmlns:xlink="http://www.w3.org/1999/xlink" x="0px"
	 y="0px" viewBox="0 0 225.3 40.1" style="enable-background:new 0 0 225.3 40.1;" xml:space="preserve">
<style type="text/css">
	.st0{enable-background:new    ;}
	.st1{fill:#172A4E;}
	.st2{fill:#CD431A;}
</style>
<g id="グループ_1415" transform="translate(-394 -24)">
	<g class="st0">
		<path class="st1" d="M400.4,27.7c0,0.2,0,0.2,0,0.8c0,2-0.4,3.2-1.2,4.2c-0.7,0.9-1.6,1.5-3.1,2.1c-0.2-0.4-0.3-0.5-0.6-0.8
			c1-0.3,1.6-0.6,2.2-1.1c1.3-1,1.7-2.2,1.7-4.6c0-0.3,0-0.4,0-0.6H400.4z M405.1,26.2c-0.1,0.2-0.1,0.2-0.3,0.5
			c-0.8,1.6-1.9,2.7-3.5,3.4c-0.2-0.3-0.3-0.4-0.6-0.7c0.8-0.3,1.3-0.6,1.9-1.1c0.6-0.5,1-1.1,1.3-1.8h-6.8c-0.7,0-1,0-1.4,0.1v-0.9
			c0.4,0.1,0.7,0.1,1.4,0.1h6.4c0.8,0,0.8,0,1-0.1L405.1,26.2z"/>
		<path class="st1" d="M415.1,26.5c-0.1,0.1-0.1,0.1-0.3,0.7c-0.6,2.3-1.5,3.9-3,5.2c-1.1,1-2.1,1.6-3.8,2.3
			c-0.2-0.4-0.3-0.5-0.6-0.8c1.1-0.3,1.8-0.6,2.7-1.3c2-1.3,3.1-3,3.8-5.7h-6.1c-0.6,0-0.9,0-1.3,0.1v-1c0.5,0.1,0.7,0.1,1.4,0.1
			h5.9c0.5,0,0.6,0,0.8-0.1L415.1,26.5z"/>
		<path class="st1" d="M421.4,24.9c-0.2,0.2-0.2,0.2-0.4,0.8c-0.1,0.2-0.2,0.4-0.4,0.7c0.2,0,0.2,0,3.7-0.1c0.3,0,0.5,0,0.7-0.1
			l0.5,0.5c-0.1,0.2-0.1,0.2-0.3,0.8c-0.8,2.2-1.9,4-3.1,5.2c-1,1-2.2,1.7-3.8,2.5c-0.2-0.4-0.3-0.5-0.6-0.7c1-0.4,1.7-0.7,2.5-1.3
			c0.9-0.6,1.5-1.1,2.1-1.9c-0.9-0.8-1.7-1.4-2.7-1.9l0.6-0.6c1,0.6,1.7,1.1,2.7,1.9c0.7-1.1,1.2-2.2,1.7-3.5l-4.2,0.1
			c-0.8,1.3-1.7,2.2-2.9,3.2c-0.3-0.3-0.4-0.4-0.7-0.6c1.3-0.9,2.3-2,3.1-3.4c0.4-0.7,0.6-1.2,0.7-1.6L421.4,24.9z"/>
		<path class="st1" d="M427.5,29.4c0.3,0.1,0.7,0.1,1.5,0.1h7c0.9,0,1.1,0,1.5-0.1v1c-0.4,0-0.7,0-1.5,0h-7c-0.9,0-1.1,0-1.5,0V29.4
			z"/>
		<path class="st1" d="M440.2,33.6c-1,0-1,0-1.3,0v-0.9c0.4,0.1,0.6,0.1,1.3,0.1h5.7V27h-5.5c-0.7,0-1,0-1.4,0.1v-1
			c0.4,0.1,0.6,0.1,1.4,0.1h5.8c0.2,0,0.3,0,0.6,0c0,0.3,0,0.5,0,0.9v6.1c0,0.4,0,0.9,0.1,1.1h-1v-0.7H440.2z"/>
		<path class="st1" d="M450.7,33.5v0.9h-0.9c0-0.3,0-0.5,0-0.9V27c0-0.5,0-0.6,0-0.9c0.2,0,0.5,0,0.9,0h6.4c0.5,0,0.7,0,0.9,0
			c0,0.3,0,0.4,0,0.9v6.5c0,0.4,0,0.7,0,0.9h-0.9v-0.9H450.7z M457.2,26.9h-6.4v5.9h6.4V26.9z"/>
		<path class="st1" d="M468.5,28c0.7,0,1,0,1.4-0.1v0.9c-0.4,0-0.8-0.1-1.4-0.1h-2.7c-0.1,1.7-0.3,2.6-0.9,3.5c-0.6,1-1.6,1.8-3,2.5
			c-0.2-0.4-0.3-0.5-0.6-0.8c1.4-0.6,2.4-1.4,3-2.5c0.4-0.7,0.5-1.3,0.6-2.8h-3.3c-0.6,0-1,0-1.4,0.1v-0.9c0.4,0.1,0.7,0.1,1.4,0.1
			h3.3c0-0.4,0-0.7,0-1.1v-0.9c0-0.5,0-0.7-0.1-1h1c0,0.3,0,0.3-0.1,1l0,0.9c0,0.9,0,0.9,0,1.1H468.5z"/>
		<path class="st1" d="M476.3,25.2c0-0.3,0-0.5-0.1-0.8h0.9c-0.1,0.2-0.1,0.4-0.1,0.8v0.6h3.4c0.6,0,1,0,1.3-0.1v0.8
			c-0.3,0-0.7-0.1-1.3-0.1h-7.7c0,3.3-0.1,4.7-0.3,5.9c-0.2,1.1-0.5,1.9-0.9,2.7c-0.2-0.3-0.4-0.4-0.7-0.6c0.9-1.5,1.1-2.9,1.1-7.3
			c0-0.8,0-1.2-0.1-1.6c0.4,0,0.7,0.1,1.2,0.1h3.2V25.2z M472.9,33.7c0.6-1.1,0.9-2.1,1-3.9l0.8,0.2c-0.2,1.9-0.4,2.8-1.1,4.1
			L472.9,33.7z M476.4,28.7c0,0.3-0.1,0.6-0.1,1.1v4.3c0,0.2,0,0.3,0.2,0.3c0.1,0,0.5,0.1,1,0.1c1,0,1.3-0.1,1.5-0.3
			c0.1-0.2,0.2-1.1,0.2-1.9V32c0.3,0.2,0.5,0.2,0.8,0.3c-0.1,1.5-0.2,2.2-0.5,2.5c-0.3,0.3-0.7,0.4-1.9,0.4c-1.7,0-2-0.1-2-0.8v-4.6
			c0-0.5,0-0.8-0.1-1.1H476.4z M478.6,29.4c-1-0.9-1.6-1.3-2.9-2l0.5-0.5c1.2,0.6,1.8,1,2.9,1.9L478.6,29.4z M481.1,33.9
			c-0.3-1.7-0.6-2.5-1.4-4l0.7-0.3c0.7,1.5,1.1,2.4,1.5,3.9L481.1,33.9z"/>
		<path class="st1" d="M484.6,25.8c0-0.6,0-0.9-0.1-1.2h0.9c0,0.3-0.1,0.7-0.1,1.2V27h0.4c0.3,0,0.5,0,0.8,0v0.8c-0.3,0-0.5,0-0.8,0
			h-0.4v2.1c0.4-0.2,0.6-0.3,1-0.5l0,0.7c-0.5,0.3-0.6,0.3-1.1,0.5v4c0,0.7-0.2,0.8-1.2,0.8c-0.3,0-0.4,0-0.7,0
			c0-0.3-0.1-0.5-0.2-0.7c0.4,0.1,0.8,0.1,1,0.1c0.3,0,0.3-0.1,0.3-0.2v-3.6c-0.5,0.2-0.5,0.2-0.9,0.4c-0.2,0.1-0.3,0.1-0.5,0.2
			l-0.2-0.8c0.4-0.1,0.6-0.1,1.6-0.5v-2.5h-0.7c-0.3,0-0.5,0-0.8,0v-0.8c0.3,0,0.5,0.1,0.8,0.1h0.7V25.8z M487.9,28.6
			c-0.5,0-0.8,0-1.1,0V28c0.3,0,0.6,0.1,1.1,0.1h3.4c0.6-0.9,0.9-1.5,1.2-2.3l0.7,0.3c-0.6,1.2-0.7,1.3-1.2,2h0.6
			c0.5,0,0.8,0,1.1-0.1v0.7c-0.3,0-0.6,0-1.1,0h-3.3c0,0.5-0.1,0.7-0.1,1h3.5c0.6,0,1,0,1.3-0.1v0.8c-0.4,0-0.8-0.1-1.3-0.1h-3.6
			c-0.1,0.4-0.1,0.6-0.2,0.9h2.7c0.5,0,0.8,0,1,0l0.4,0.5c-0.1,0.1-0.1,0.1-0.3,0.4c-0.3,0.4-1,1.2-1.5,1.6c1,0.5,1.7,0.8,3,1.1
			c-0.2,0.3-0.3,0.4-0.4,0.7c-1.4-0.4-2.3-0.8-3.2-1.4c-0.9,0.6-1.8,1-3,1.4c-0.1-0.3-0.2-0.4-0.4-0.6c1.2-0.3,1.9-0.6,2.9-1.1
			c-0.7-0.5-1.1-1-1.5-1.6c-0.6,1.3-1.3,2.3-2.4,3.3c-0.1-0.2-0.3-0.4-0.5-0.6c0.8-0.6,1.2-1.2,1.7-1.9c0.5-0.8,0.8-1.6,1-2.5h-0.4
			c-0.6,0-0.9,0-1.2,0.1v-0.8c0.3,0,0.7,0.1,1.2,0.1h0.5c0-0.3,0.1-0.6,0.1-1H487.9z M493.4,25.2c-0.2,0-0.2,0-0.6,0.1
			c-1.5,0.3-4,0.6-6.2,0.7c0-0.3-0.1-0.4-0.3-0.7c0.1,0,0.2,0,0.3,0c2.3,0,5.3-0.4,6.2-0.8L493.4,25.2z M487.9,27.9
			c-0.2-0.6-0.4-1-0.8-1.5l0.6-0.2c0.3,0.5,0.5,0.9,0.7,1.5L487.9,27.9z M488.9,31.8c0.4,0.5,0.9,1,1.5,1.4c0.6-0.5,0.9-0.8,1.3-1.4
			H488.9z M489.9,27.8c-0.2-0.6-0.4-1-0.7-1.6l0.6-0.2c0.3,0.6,0.5,0.9,0.7,1.6L489.9,27.8z"/>
		<path class="st1" d="M499.7,25.1c-0.1,0.2-0.1,0.2-0.3,0.5c-0.3,0.6-0.4,0.9-0.6,1.1c0.1,0,0.2,0,0.4,0l2.9,0c0.4,0,0.5,0,0.6-0.1
			l0.7,0.8c-0.1,0.1-0.1,0.2-0.2,0.5c-1.1,3.5-3.2,5.9-6.5,7.4c-0.2-0.3-0.3-0.5-0.6-0.7c3.1-1.2,5.4-3.7,6.3-7l-4,0.1
			c-0.7,1.1-1.8,2.4-2.9,3.1c-0.2-0.3-0.3-0.4-0.7-0.6c1.2-0.7,2.1-1.8,3-3.3c0.5-0.8,0.7-1.4,0.8-1.7L499.7,25.1z M503.4,24.7
			c0.6,0.7,0.9,1.1,1.2,1.8l-0.6,0.4c-0.3-0.6-0.8-1.5-1.2-1.8L503.4,24.7z M504.7,24c0.6,0.7,0.8,1,1.2,1.8l-0.6,0.3
			c-0.3-0.6-0.7-1.3-1.2-1.8L504.7,24z"/>
		<path class="st1" d="M509.2,25.4c0,0.3,0,0.3-0.1,1c-0.1,3.3-0.2,4.1-0.6,5.3c-0.4,1.1-1,1.9-2.1,3c-0.2-0.3-0.4-0.4-0.7-0.6
			c1-0.8,1.6-1.6,2-2.8c0.4-1,0.5-2.6,0.5-5.1c0-0.4,0-0.6,0-0.9L509.2,25.4z M512.2,25.3c-0.1,0.3-0.1,0.5-0.1,1.1l-0.1,7.2
			c1-0.4,1.6-0.8,2.2-1.4c0.7-0.7,1.1-1.5,1.4-2.4c0.3,0.3,0.3,0.4,0.7,0.7c-0.6,1.4-1.4,2.4-2.4,3.1c-0.5,0.4-1,0.6-1.7,0.9
			c-0.2,0.1-0.2,0.1-0.4,0.1c-0.1,0.1-0.2,0.1-0.3,0.1l-0.5-0.6c0.1-0.2,0.1-0.3,0.1-0.8l0.1-7c0-0.8,0-0.8,0-1.1L512.2,25.3z"/>
		<path class="st1" d="M524.8,25.6c-0.2,0.2-0.2,0.3-0.4,0.7c-0.8,1.8-1.2,2.6-1.8,3.5c1,0.9,1.8,1.6,2.8,2.6l-0.7,0.7
			c-0.6-0.8-1.4-1.6-2.6-2.6c-1.3,1.7-2.7,3-4.8,4.2c-0.2-0.4-0.3-0.5-0.6-0.7c1.9-0.9,3.5-2.2,4.8-4c-1.1-0.9-2.2-1.6-3.2-2.2
			l0.6-0.6c1.2,0.7,1.8,1.1,3.1,2.1c0.6-0.9,1-1.8,1.4-2.8c0.3-0.7,0.4-0.9,0.4-1.3L524.8,25.6z"/>
		<path class="st1" d="M533.8,27.5v-1.2c0-0.9,0-0.9,0-1.2h0.9c0,0.3,0,0.3,0,1.1c0,0.3,0,0.3,0,1.3h1c0.7,0,1,0,1.4-0.1v0.9
			c-0.4,0-0.8-0.1-1.4-0.1h-1.1c0,2.4-0.1,3.2-0.6,4.1c-0.4,0.8-1.1,1.5-2,2c-0.4,0.2-0.7,0.4-1.4,0.6c-0.2-0.3-0.3-0.5-0.5-0.8
			c1-0.3,1.7-0.6,2.3-1.2c0.8-0.8,1.2-1.5,1.3-3c0-0.4,0-0.8,0-1.7h-3.6v2c0,0.5,0,0.7,0,1h-1c0-0.3,0-0.5,0-1v-2h-1
			c-0.6,0-1,0-1.4,0.1v-0.9c0.4,0.1,0.7,0.1,1.4,0.1h1v-1.4c0-0.5,0-0.7,0-1h1c0,0.3,0,0.4,0,1v1.4H533.8z"/>
		<path class="st1" d="M547,25.6c-0.2,0.2-0.2,0.2-0.5,0.5c-0.8,0.8-1.8,1.7-2.8,2.4v5.1c0,0.7,0,0.9,0.1,1.3h-1
			c0.1-0.3,0.1-0.6,0.1-1.2v-4.6c-1.6,1-2.4,1.4-4.6,2.1c-0.2-0.4-0.2-0.5-0.5-0.8c2.3-0.6,4.3-1.6,6.2-3.1c1.1-0.9,2-1.7,2.3-2.3
			L547,25.6z"/>
		<path class="st1" d="M550.1,34.9c0-0.3,0.1-0.6,0.1-1.3v-7.4c0-0.6,0-0.9-0.1-1.2h1c0,0.3-0.1,0.6-0.1,1.2v2.2
			c1.8,0.7,3.2,1.3,5.3,2.5l-0.5,0.9c-1.1-0.8-2.8-1.7-4.5-2.4c-0.2-0.1-0.3-0.1-0.4-0.2l0,0c0,0.2,0,0.4,0,0.7v3.6
			c0,0.7,0,0.9,0.1,1.3H550.1z"/>
	</g>
	<g class="st0">
		<path class="st1" d="M547.9,50.6h2.9c1.8,0,3.2,0.5,3.2,2.2c0,0.8-0.5,1.7-1.2,1.9v0.1c1,0.2,1.7,0.9,1.7,2.1
			c0,1.8-1.5,2.6-3.4,2.6h-3.2V50.6z M550.7,54.2c1.1,0,1.6-0.5,1.6-1.2c0-0.8-0.5-1.1-1.6-1.1h-1.1v2.3H550.7z M550.9,58.1
			c1.2,0,1.9-0.4,1.9-1.4c0-0.9-0.6-1.2-1.9-1.2h-1.2v2.6H550.9z"/>
		<path class="st1" d="M555.4,62.1l0.3-1.4c0.1,0,0.3,0.1,0.5,0.1c0.7,0,1.1-0.4,1.3-1l0.1-0.4l-2.6-6.6h1.8l1.1,3.1
			c0.2,0.6,0.4,1.2,0.6,1.9h0.1c0.2-0.6,0.3-1.3,0.5-1.9l0.9-3.1h1.7l-2.4,6.9c-0.6,1.6-1.3,2.5-2.8,2.5
			C555.9,62.2,555.7,62.2,555.4,62.1z"/>
	</g>
</g>
<g class="st0">
	<path class="st2" d="M2.8,28.6c-0.9-0.7-1.4-1-2.3-1.3C0.2,27.1,0,26.8,0,26.5c0-0.5,0.4-1,1-1c0.2,0,1.3,0.1,2.9,1.2
		c0.3,0.2,0.4,0.5,0.4,0.8c0,0.6-0.4,1.1-1,1.1C3.2,28.8,3,28.7,2.8,28.6z M1.5,37.6c-0.6,0-1.1-0.5-1.1-1c0-0.2,0.1-0.4,0.2-0.6
		c1.1-1.5,2-3.3,2.5-4.9c0.1-0.4,0.5-0.6,0.8-0.6c0.5,0,1,0.4,1,0.9C5,31.9,3.8,35,2.5,37C2.3,37.4,1.9,37.6,1.5,37.6z M3.5,24.2
		c-0.7-0.8-1.3-1.3-2.1-1.7C1.2,22.3,1,22.1,1,21.9c0-0.5,0.5-1,1.1-1c0.7,0,3.1,1.5,3.1,2.5c0,0.6-0.5,1.1-1,1.1
		C4,24.5,3.7,24.4,3.5,24.2z M10.2,31.5c-0.9,0-1.8,0-2.6-0.1c-1.4-0.1-2.1-0.9-2.2-2c0-0.6-0.1-1.1-0.1-1.7c0-0.7,0-1.4,0.1-2.1
		c0-0.9,0.6-1.9,2.1-2c0.8,0,1.7-0.1,2.6-0.1v-2.6c0-0.6,0.5-0.9,1-0.9c0.5,0,1,0.3,1,0.9v2.6c1,0,1.9,0,2.9,0.1c1.2,0,2,1,2,1.8
		c0.1,0.6,0.1,1.3,0.1,1.9c0,0.6,0,1.3-0.1,1.9c-0.1,1-0.8,1.9-2.1,2c-0.9,0-1.8,0.1-2.8,0.1v5.4c0,0.5-0.5,0.8-1,0.8
		c-0.5,0-1-0.3-1-0.8V31.5z M10.2,25.5c-0.7,0-1.4,0-1.9,0c-0.9,0-1,0.6-1,2.1c0,0.4,0,0.9,0,1.3c0.1,0.8,0.3,0.9,2.9,0.9V25.5z
		 M12.2,29.8c2.6,0,3,0,3.1-0.9c0-0.5,0-0.9,0-1.3c0-0.4,0-0.9,0-1.2c-0.1-0.9-0.5-0.9-3.1-0.9V29.8z"/>
	<path class="st2" d="M20.4,36.5c-0.4,0-0.9-0.3-0.9-0.8c0-0.1,0-0.3,0.1-0.5c0.5-0.9,0.9-2.3,1-3.5c0-0.5,0.4-0.7,0.7-0.7
		c0.4,0,0.8,0.3,0.8,0.9c0,0.5-0.5,3.1-1.1,4.1C21,36.4,20.7,36.5,20.4,36.5z M22.7,36.9l0.1-6.9c-0.9,0.1-2,0.3-2.1,0.3
		c-0.5,0-0.7-0.4-0.7-0.8c0-0.4,0.2-0.7,0.6-0.7c0.2,0,0.5,0,0.8-0.1c0.3-0.4,0.7-0.9,1.1-1.5c-0.6-0.6-1.7-1.5-2.1-1.9
		c-0.2-0.2-0.3-0.4-0.3-0.7c0-0.4,0.3-0.8,0.7-0.8c0.1,0,0.2,0,0.5,0.2c0.5-0.9,1.2-2.4,1.5-3.4c0.1-0.4,0.4-0.6,0.7-0.6
		c0.5,0,0.9,0.3,0.9,0.8c0,0.7-1.4,3.3-1.9,4.1c0.3,0.3,0.6,0.6,0.9,0.8c0.6-1,1.1-2.1,1.4-2.9c0.1-0.4,0.4-0.5,0.7-0.5
		c0.5,0,0.9,0.4,0.9,0.9c0,0.5-1.6,3.2-3,5.2c0.6-0.1,1.2-0.1,1.7-0.2c-0.1-0.1-0.1-0.3-0.2-0.4c-0.1-0.2-0.1-0.3-0.1-0.4
		c0-0.3,0.3-0.6,0.6-0.6c1,0,1.7,2.4,1.7,2.7c0,0.6-0.4,0.9-0.8,0.9c-0.4,0-0.6-0.2-0.7-1c-0.3,0.1-0.7,0.1-1.2,0.2l0,7.2
		c0,0.6-0.4,0.9-0.9,0.9C23.1,37.8,22.7,37.5,22.7,36.9L22.7,36.9z M25.3,34.2c0-0.8-0.2-1.6-0.5-2.3c-0.1-0.1-0.1-0.3-0.1-0.4
		c0-0.4,0.3-0.6,0.7-0.6c1.2,0,1.6,3.1,1.6,3.1c0,0.6-0.5,0.9-0.9,0.9C25.7,35,25.3,34.8,25.3,34.2z M32.7,35.3
		c0,0.7,0.6,0.8,1.6,0.8c1.8,0,1.9-0.7,1.9-1.4c0-0.5,0.4-0.8,0.8-0.8c0.3,0,0.9,0.1,0.9,0.9c0,2.2-1.3,2.8-3.8,2.8
		c-2.2,0-3.1-0.6-3.1-2.1v-1c-3,0-3.9,0-3.9-1.8c0-0.4,0-1.1,0-1.7c0-2.7,0.2-3,3.9-3v-0.9c-2.7,0-3.6-0.1-3.7-1.7
		c0-0.3,0-0.9,0-1.4c0-0.6,0-1.1,0-1.4c0-1,0.4-1.7,1.8-1.7c0.9,0,1.9,0,2.8,0c1,0,2,0,2.8,0c1.1,0,1.6,0.8,1.7,1.6
		c0,0.3,0,0.9,0,1.4c0,2.2,0,3.1-1.8,3.2c-0.7,0-1.4,0-2,0v0.9c0.8,0,1.6,0,2.5,0.1c1.1,0,1.6,0.7,1.6,1.6c0,0.3,0,0.9,0,1.4
		c0,2.2,0,3.2-1.8,3.3c-0.8,0-1.6,0-2.4,0V35.3z M31.1,31.8h-2.3c0,1.2,0,1.3,0.7,1.3c0.5,0,1.1,0,1.6,0V31.8z M31.1,29.4
		c-2.3,0-2.3,0-2.3,0.7v0.5h2.3V29.4z M31.1,22.2c-1.9,0-2,0-2.1,0.7c0,0.1,0,0.3,0,0.5h2.1V22.2z M31.1,24.5H29c0,0.3,0,0.5,0,0.7
		c0,0.6,0.2,0.6,2.1,0.6L31.1,24.5z M32.7,31.9v1.3c2.3,0,2.5,0,2.5-0.7c0-0.2,0-0.4,0-0.7H32.7z M32.7,24.5v1.3c0.5,0,1,0,1.5,0
		c0.7,0,0.7-0.4,0.7-1.3H32.7z M35.3,30.7c0-0.2,0-0.4,0-0.6c0-0.6-0.1-0.7-2.5-0.7v1.2L35.3,30.7z M34.9,23.3c0-0.2,0-0.4,0-0.6
		c0-0.4-0.1-0.5-0.7-0.5c-0.5,0-1,0-1.5-0.1v1.2H34.9z"/>
</g>
<g class="st0">
	<path class="st2" d="M47.6,24c-2,0-3.7,2-3.7,5.6c0,3.1,1.3,4.4,3.2,4.4c0.9,0,1.7-0.3,2.1-0.7c0-1.4,0.1-3,0.4-3.6
		c0.2-0.5,0.5-0.8,1-0.8c1,0,2.1,0.9,2.1,1.7c0,0.5-0.3,1.6-0.8,2.6c0,1.4,0.5,3.5,0.5,4.5c0,1.3-1.3,2.3-3.6,2.4L48.7,40
		c0.3-1.5,0.5-3.4,0.5-4.4l-0.1,0c-0.7,0.6-1.7,1.1-3.2,1.1c-3.5,0-5.8-2.5-5.8-6.6c0-4.6,3.3-8.5,8-8.5c2.8,0,4.5,1.4,4.5,2.9
		c0,0.9-0.7,1.7-2.2,1.9C49.9,24.8,48.8,24,47.6,24z"/>
	<path class="st2" d="M54.6,30c0-4.8,3.2-8.5,7.4-8.5c3.3,0,5.9,2.5,5.9,6.7c0,4.8-3.2,8.4-7.4,8.4C57.3,36.6,54.6,34.2,54.6,30z
		 M58.5,29.6c0,3.2,1.2,4.6,2.6,4.6c1.4,0,3-1.9,3-5.5c0-3.3-1.2-4.7-2.6-4.7C60.1,24,58.5,25.9,58.5,29.6z"/>
	<path class="st2" d="M71.7,30.5c-0.7-1.9-1.3-5.5-1.3-7.4c0-2,1.1-3.2,2.7-3.2c1.1,0,1.8,0.7,1.8,1.9c0,2.3-1.4,4.2-1.6,9.3
		C72.7,31.3,72,31.1,71.7,30.5z M72.7,32.9c1,0,1.9,0.8,1.9,1.9c0,1-0.8,1.8-1.9,1.8s-1.8-0.8-1.8-1.8
		C70.9,33.8,71.7,32.9,72.7,32.9z"/>
	<path class="st2" d="M77.7,23.6c0-0.9,1.4-2.1,3.4-2.1c1.4,0,2.5,1,2.5,2.8c0,0.9-0.2,2.3-0.3,3.9c0.5,0.1,1.3,0.1,2.1,0.1
		c1.1,0,2.2-0.2,2.8-0.5c0.1-1.9,0.4-4.2,0.7-5.2c0.2-0.7,0.5-1.1,1.3-1.1c1.1,0,2.2,0.9,2.2,1.8c0,0.9-0.5,2.9-1.2,4.9
		c-0.1,0.6-0.1,1.4-0.1,3c0,2.5,0.2,3.1,0.7,3.1c0.4,0,1-0.2,1.4-0.6c0.2,0.1,0.4,0.5,0.4,0.8c0,1-1.2,2.1-2.9,2.1
		c-1.8,0-2.9-1.3-2.9-3.7c0-1,0.1-1.8,0.2-2.3l-0.1,0c-0.4,0.2-1.3,0.4-2.2,0.4c-0.9,0-1.9-0.2-2.5-0.3c-0.1,1.5,0,3.5,0,4.3
		c0,0.8-0.9,1.7-1.9,1.7c-0.9,0-1.9-1-1.9-2.7c0-1,0.3-2.4,0.6-3.5c0.2-1.6,0.3-3.2,0.3-4.8c0-1.2-0.3-1.6-0.9-1.6
		c-0.3,0-0.9,0.1-1.3,0.4C78,24.3,77.7,24,77.7,23.6z"/>
	<path class="st2" d="M105,24.3c0.4-1.9,1.1-2.9,1.7-2.9c1.1,0,2.3,1.3,2.3,2.3c0,0.5-0.5,1.8-1,2.8c-0.3,1.1-0.4,2.7-0.4,4.3
		c0,2.8,0.4,3.6,1.1,3.6c0.3,0,1-0.3,1.3-0.6c0.1,0.2,0.3,0.5,0.3,0.8c0,1-1.2,2.1-2.9,2.1c-1.6,0-2.9-1-3.1-3.5h-0.1
		c-0.7,2.3-2.3,3.5-4,3.5c-2.9,0-4.8-2.2-4.8-6.2c0-4.8,2.9-8.9,6.5-8.9C103.4,21.5,104.5,22.5,105,24.3L105,24.3z M104.5,26.2
		c-0.4-1.1-1.3-1.8-2.2-1.8c-1.6,0-3.2,2.3-3.2,5.7c0,2.7,0.8,3.7,2,3.7c1.3,0,2.3-1.3,3-3.9C104.2,28.9,104.3,27.1,104.5,26.2z"/>
	<path class="st2" d="M111.2,23.6c0-0.9,1.4-2.1,3.3-2.1c1.5,0,2.5,1,2.5,2.7c0,0.9-0.1,1.4-0.2,2.2l0.1,0c1.3-3.7,2.8-4.9,4.6-4.9
		c1.8,0,3.2,1.4,3.2,4.4c0,2.1-0.4,3.9-0.4,6.5c0,1.6,0.2,2,0.7,2c0.4,0,1-0.3,1.4-0.6c0.2,0.1,0.4,0.4,0.4,0.8c0,1-1.2,2.1-3,2.1
		c-1.8,0-3.1-1.2-3.1-3.8c0-1.7,0.4-3.5,0.4-5.5c0-1.5-0.5-2.2-1.2-2.2c-1.1,0-2.7,2.6-3.3,5.9c0,1.3,0.3,2.9,0.3,3.7
		c0,1.1-1,1.9-2.1,1.9c-0.9,0-1.8-1-1.8-3.2c0-2.3,0.6-5.1,0.6-7.7c0-1.2-0.2-1.7-0.8-1.7c-0.4,0-0.9,0.1-1.3,0.4
		C111.5,24.3,111.2,24,111.2,23.6z"/>
</g>
<g class="st0">
	<path class="st2" d="M135,25l-2.5-0.1c0,0.6-0.1,1.2-0.1,1.9c0.4,0,0.8,0,1.1,0c0.8,0,2,0,2,1.7c0,3.6-0.3,5.3-0.6,6.2
		c-0.5,1.7-1.6,2.4-2.7,2.4c-0.6,0-1.7-0.2-1.7-1.1c0-0.4,0.3-0.9,0.7-0.9c0.1,0,0.2,0,0.4,0.1c0.2,0.1,0.4,0.1,0.6,0.1
		c1,0,1.5-1.5,1.5-6.3c0-0.6-0.4-0.6-1.5-0.6c-0.3,3.1-0.9,6.2-2.8,8.7c-0.2,0.3-0.5,0.4-0.7,0.4c-0.5,0-1-0.4-1-0.9
		c0-0.2,0-0.3,0.2-0.5c2.4-3.1,2.6-7.2,2.8-11.1l-1.5,0h0c-0.6,0-0.9-0.4-0.9-0.8c0-0.5,0.3-0.9,0.9-0.9h0l2,0l0-2.2
		c0-0.6,0.5-0.9,1-0.9c0.5,0,1,0.3,1,0.9l0,2.2l1.9,0h0c0.6,0,0.9,0.4,0.9,0.9S135.6,25,135,25L135,25z M138.2,24.4
		c-0.4,0.7-0.9,1.4-1.4,2.1c-0.2,0.3-0.5,0.5-0.8,0.5c-0.5,0-1-0.4-1-0.8c0-0.2,0.1-0.4,0.2-0.6c1.2-1.5,2-3.1,2.6-4.7
		c0.1-0.4,0.5-0.6,0.8-0.6c0.5,0,1,0.3,1,0.9c0,0.2-0.4,1.2-0.6,1.6l5.4,0h0c0.6,0,0.8,0.4,0.8,0.9c0,0.4-0.3,0.9-0.9,0.9H138.2z
		 M137.4,28.8c-0.9,0.2-0.9,0.2-0.9,0.2c-0.5,0-0.8-0.5-0.8-0.9c0-0.4,0.2-0.7,0.6-0.8c2.2-0.5,4.6-1.2,6.6-2.2
		c0.1-0.1,0.3-0.1,0.4-0.1c0.5,0,0.9,0.5,0.9,0.9c0,0.6-0.3,0.8-2.5,1.6c0,0.8,0.1,1.6,0.3,2.4c0.8-0.4,1.5-0.9,2.2-1.4
		c0.2-0.1,0.3-0.2,0.5-0.2c0.5,0,1,0.5,1,1c0,0.4-0.2,0.9-3.3,2.1c0.6,1.8,1.5,3.2,3,4.2c0.3,0.2,0.5,0.5,0.5,0.8
		c0,0.6-0.5,1.1-1.1,1.1c-1.1,0-4.3-3.4-4.6-9.4c-0.3,0.1-0.6,0.2-0.9,0.3l0,8.6c0,0.6-0.5,0.9-0.9,0.9c-0.5,0-0.9-0.3-0.9-0.9
		L137.4,28.8z"/>
</g>
<g id="グループ_1436" transform="translate(-32.465 -213.83)">
	<g id="グループ_1434" transform="translate(205.465 236.83)">
		<path id="パス_927" class="st1" d="M52.3-0.4c0,0-2-0.1-2.5-0.1c-2.2,0-3.5,0.1-4.6,1c-0.8,0.7-1.3,1.7-1.1,2.8h-2.1v2.8h2.1
			v7.7h5.5V6.1h2.6V4.2l0,0v-1h-2.7c0-0.2,0-0.4,0.1-0.5c0.2-0.2,0.5-0.3,1.2-0.3c0.3,0,1.1,0.1,1.1,0.1l0.2,0
			c-0.4-0.4-0.5-1-0.5-1.5C51.7,0.5,51.9,0,52.3-0.4z M41.5,11.3V7.1c0.1-1-0.1-2-0.8-2.7C39.8,3.4,38,3,35,3c-3,0-6.9,0.4-7.1,3.5
			l0,0.2h5.2l0-0.2c0-0.7,0.9-0.8,1.7-0.8c0.5,0,0.9,0.1,1.3,0.4c0.1,0.1,0.1,0.2,0.1,0.4c0,0.4-0.3,0.6-1.2,0.7
			c-0.4,0.1-0.9,0.1-1.4,0.2c-2.7,0.3-6.3,0.6-6.3,3.5c0,0.4,0.1,0.9,0.3,1.2l0.2,0.3c0.1,0.2,0.2,0.3,0.4,0.4
			c1.2,0.9,2.6,1.4,4.1,1.3c1.5,0.1,2.9-0.3,4.1-1c0,0.2,0.1,0.4,0.2,0.7l0.1,0.1h5.8l-0.3-0.4C41.7,12.8,41.5,12,41.5,11.3
			L41.5,11.3z M34.3,11.3c-0.4,0-0.9-0.1-1.2-0.4c-0.1-0.1-0.1-0.2-0.2-0.3c0-0.5,0.4-0.7,1.5-0.9c0.6-0.1,1.2-0.2,1.8-0.4
			c0,0.3,0,0.6,0,0.6C36.2,10.8,35.4,11.3,34.3,11.3L34.3,11.3z M19.1,3c-4.2,0-7.3,2.3-7.3,5.5c0,0.4,0,0.8,0.2,1.2H4.9V-0.5h-6.1
			v14.2h14.2v-2c0,0.1,0.1,0.1,0.1,0.1c1.8,1.5,4,2.2,6.3,2.1c1.9,0.1,3.7-0.4,5.3-1.4l0.4-0.3c0.6-0.4,1.1-1,1.4-1.7l0.1-0.3h-5.2
			l-0.1,0.1c-0.5,0.5-1.2,0.7-2,0.6L18.8,11c-0.8-0.1-1.5-0.7-1.7-1.5h9.7V9.3c0.1-1.6-0.5-3.2-1.6-4.4C24,3.7,21.9,3,19.1,3L19.1,3
			z M17.2,7.1c0.3-0.8,1.1-1.2,2.3-1.2c0.6,0,1.2,0.2,1.6,0.6c0.2,0.2,0.3,0.4,0.4,0.7H17.2z"/>
	</g>
	<g id="グループ_1435" transform="translate(212.461 236.846)">
		<path id="パス_928" class="st1" d="M0.2,2l0.1,0.5C0,2.6-0.5,2.7-1,2.9l-0.1-0.6c0.1,0,0.3-0.1,0.5-0.1V1.5h-0.4V1h0.4V0.3h-0.4
			v-0.5h1.4v0.5h-0.4V1h0.3v0.5h-0.3v0.6L0.2,2z M0.5,2V1.5H1V2c0,0.1,0,0.2,0,0.4c0,0.1-0.1,0.2-0.1,0.4C0.8,2.9,0.7,3,0.7,3.1
			C0.5,3.3,0.4,3.4,0.3,3.4c0-0.1-0.1-0.1-0.2-0.2C0,3.2,0,3.1-0.1,3c0.2-0.1,0.4-0.3,0.5-0.4C0.4,2.4,0.5,2.2,0.5,2L0.5,2z
			 M0.3,0.8h0.4c0.1-0.2,0.1-0.3,0.2-0.4H0.3v-0.5h0.8v-0.4h0.6v0.4h1v0.5H1.5l0,0L1.3,0.8l0.6,0C1.9,0.8,1.8,0.7,1.7,0.6l0.4-0.2
			C2.4,0.7,2.7,1,2.9,1.3L2.4,1.6c0-0.1-0.1-0.2-0.1-0.3c-0.3,0-1,0-1.9,0.1L0.3,0.8z M1.1,3.2V1.6h0.5v1.6H1.1z M2.3,2.9L2.3,2.9
			C2.4,2.9,2.4,2.9,2.3,2.9c0.1,0,0.1-0.1,0.1-0.1c0-0.1,0-0.2,0-0.4c0.1,0.1,0.3,0.2,0.4,0.2c0,0.2,0,0.3-0.1,0.5
			c0,0.1-0.1,0.2-0.2,0.2c-0.1,0-0.2,0.1-0.2,0.1H2.2c-0.1,0-0.2,0-0.3-0.1C1.8,3.1,1.7,3,1.8,2.8V1.5h0.5v1.3
			C2.3,2.8,2.3,2.9,2.3,2.9C2.3,2.9,2.3,2.9,2.3,2.9L2.3,2.9z"/>
		<path id="パス_929" class="st1" d="M6.8,1.8L6.6,1.7c0.2,0.4,0.5,0.7,0.8,1C7.3,2.8,7.1,2.9,7.1,3.1C6.8,2.9,6.5,2.6,6.4,2.3
			v0.4c0,0.1,0,0.2,0,0.3c0,0.1-0.1,0.2-0.2,0.2C5.9,3.4,5.7,3.4,5.5,3.4c0-0.2-0.1-0.4-0.2-0.6c0.1,0,0.3,0,0.4,0
			c0,0,0.1,0,0.1-0.1c0,0,0,0,0,0v-2H4.9V0.4H4.5V1h0.4v0.5H4.5v0.6L4.9,2l0,0.3C5.2,2.1,5.4,2,5.6,1.9l0.2,0.5
			C5.4,2.6,5.1,2.8,4.9,3L4.6,2.6c-0.1,0-0.5,0.1-1.1,0.3L3.4,2.4c0.1,0,0.3-0.1,0.5-0.1V1.5H3.5V1h0.4V0.4H3.5v-0.6h1.4v0.4h0.9
			v-0.7h0.6v0.7h0.5C6.7,0,6.6-0.1,6.4-0.2l0.3-0.3C7-0.4,7.1-0.2,7.3-0.1L7,0.2h0.3v0.5h-1v0.1c0,0.2,0.1,0.4,0.1,0.6
			C6.6,1.2,6.7,1,6.8,0.8l0.5,0.3C7.1,1.5,6.9,1.7,6.8,1.8z M5.7,1.6L5.2,1.8C5.1,1.5,5,1.3,4.8,1.1l0.5-0.2
			C5.5,1.1,5.6,1.3,5.7,1.6L5.7,1.6z"/>
	</g>
</g>
</svg>
