<?xml version="1.0" encoding="utf-8"?>
<!-- Generator: Adobe Illustrator 24.2.0, SVG Export Plug-In . SVG Version: 6.00 Build 0)  -->
<svg version="1.1" id="レイヤー_1" xmlns="http://www.w3.org/2000/svg" xmlns:xlink="http://www.w3.org/1999/xlink" x="0px"
	 y="0px" width="256.1px" height="98.3px" viewBox="0 0 256.1 98.3" style="enable-background:new 0 0 256.1 98.3;"
	 xml:space="preserve">
<style type="text/css">
	.st0{fill:#FFFFFF;}
	.st1{fill:#CD431A;}
</style>
<g id="グループ_1612_3_" transform="translate(0 -0.184)">
	<g id="グループ_1516_3_">
		<circle id="楕円形_236_3_" class="st0" cx="218.6" cy="31.4" r="21.2"/>
	</g>
	<g id="グループ_1520_3_" transform="translate(12.254 42.299)">
		<g id="グループ_1434_3_" transform="translate(0)">
			<path id="パス_927_3_" class="st1" d="M223.1-12.7c0,0-1.2-0.2-1.5-0.3c-1.3-0.2-2.1-0.2-2.8,0.2c-0.6,0.3-0.9,0.9-0.9,1.6
				l-1.3-0.2l-0.2,1.7l1.3,0.2l-0.7,4.6l3.3,0.5l0.7-4.6l1.5,0.2l0.2-1.1l0,0l0.1-0.6l-1.6-0.2c0-0.1,0.1-0.2,0.1-0.3
				c0.1-0.1,0.4-0.1,0.8-0.1c0.2,0,0.7,0.1,0.7,0.1l0.1,0c-0.2-0.3-0.2-0.6-0.2-1C222.6-12.2,222.8-12.5,223.1-12.7z M215.6-6.6
				l0.4-2.5c0.1-0.6,0.2-1.2-0.2-1.7c-0.5-0.6-1.5-1-3.4-1.3c-1.8-0.3-4.2-0.4-4.6,1.5l0,0.1l3.1,0.4l0-0.1c0.1-0.4,0.6-0.4,1.1-0.3
				c0.3,0,0.6,0.1,0.8,0.3c0,0.1,0.1,0.1,0.1,0.2c0,0.2-0.2,0.3-0.8,0.3c-0.3,0-0.5,0-0.8,0c-1.6-0.1-3.9-0.2-4.1,1.5
				c0,0.3,0,0.5,0.1,0.8l0.1,0.2c0,0.1,0.1,0.2,0.2,0.3c0.4,0.6,1.3,1,2.4,1.1c0.9,0.2,1.8,0.1,2.6-0.3c0,0.1,0,0.3,0.1,0.4l0,0.1
				l3.5,0.5l-0.2-0.2C215.5-5.7,215.5-6.2,215.6-6.6z M211.2-7.2c-0.3,0-0.5-0.1-0.7-0.4c0-0.1-0.1-0.1-0.1-0.2c0-0.3,0.3-0.4,1-0.4
				c0.4,0,0.7,0,1.1-0.1c0,0.2-0.1,0.4-0.1,0.4C212.4-7.4,211.9-7.1,211.2-7.2L211.2-7.2z M202.8-13.5c-2.5-0.4-4.6,0.8-4.8,2.7
				c0,0.3,0,0.5,0,0.8l-4.2-0.6l0.9-6.2l-3.7-0.5l-1.2,8.6l8.6,1.2l0.2-1.2c0,0,0,0.1,0.1,0.1c0.7,0.9,2,1.6,3.6,1.8
				c1.1,0.2,2.3,0.1,3.3-0.4l0.2-0.1c0.4-0.2,0.7-0.5,1-0.9l0.1-0.2l-3.1-0.4l0,0c-0.4,0.2-0.8,0.3-1.2,0.2l-0.4-0.1
				c-0.5-0.1-0.8-0.5-0.9-1l5.9,0.8l0-0.1c0.2-1,0-2-0.6-2.8C205.7-12.7,204.5-13.3,202.8-13.5L202.8-13.5z M201.3-11.2
				c0.2-0.5,0.8-0.7,1.5-0.6c0.4,0,0.7,0.2,0.9,0.5c0.1,0.1,0.2,0.3,0.2,0.4L201.3-11.2z"/>
		</g>
		<g id="グループ_1435_1_" transform="translate(10.531 0.024)">
			<path id="パス_928_1_" class="st1" d="M185.2-15.1l0,0.3c-0.2,0-0.5,0.1-0.8,0.1l0-0.4c0.1,0,0.2,0,0.3,0l0.1-0.4l-0.2,0l0-0.3
				l0.2,0l0.1-0.4l-0.2,0l0-0.3l0.8,0.1l0,0.3l-0.2,0l-0.1,0.4l0.2,0l0,0.3l-0.2,0l-0.1,0.4L185.2-15.1z M185.3-15.1l0-0.3l0.3,0
				l0,0.3c0,0.1,0,0.1,0,0.2c0,0.1-0.1,0.1-0.1,0.2c0,0.1-0.1,0.1-0.2,0.2c-0.1,0.1-0.2,0.1-0.3,0.1c0,0,0-0.1-0.1-0.1
				c0,0-0.1-0.1-0.1-0.1c0.1,0,0.2-0.1,0.3-0.2C185.3-14.9,185.3-15,185.3-15.1L185.3-15.1z M185.3-15.8l0.3,0
				c0.1-0.1,0.1-0.2,0.1-0.2l-0.3,0l0-0.3l0.5,0.1l0-0.2l0.4,0.1l0,0.2l0.6,0.1l0,0.3l-0.8-0.1l0,0l-0.2,0.2l0.4,0
				c0,0-0.1-0.1-0.1-0.1l0.3-0.1c0.1,0.2,0.3,0.4,0.3,0.6l-0.3,0.1c0,0,0-0.1-0.1-0.2c-0.2,0-0.6-0.1-1.2-0.1L185.3-15.8z
				 M185.6-14.3l0.1-1l0.3,0l-0.1,1L185.6-14.3z M186.4-14.4L186.4-14.4C186.4-14.4,186.4-14.4,186.4-14.4
				C186.4-14.4,186.4-14.4,186.4-14.4c0.1-0.1,0.1-0.2,0.1-0.3c0.1,0.1,0.1,0.1,0.2,0.2c0,0.1,0,0.2-0.1,0.3c0,0.1-0.1,0.1-0.1,0.1
				c0,0-0.1,0-0.2,0l-0.1,0c-0.1,0-0.1,0-0.2-0.1c0-0.1-0.1-0.2,0-0.3l0.1-0.8l0.3,0L186.4-14.4C186.4-14.5,186.4-14.4,186.4-14.4
				C186.4-14.4,186.4-14.4,186.4-14.4L186.4-14.4z"/>
			<path id="パス_929_1_" class="st1" d="M189.2-14.7l-0.1-0.1c0.1,0.3,0.2,0.5,0.4,0.7c-0.1,0.1-0.2,0.1-0.3,0.2
				c-0.1-0.1-0.3-0.3-0.4-0.5l0,0.3c0,0.1,0,0.1-0.1,0.2c0,0-0.1,0.1-0.1,0.1c-0.1,0-0.3,0-0.4,0c0-0.1,0-0.2-0.1-0.4
				c0.1,0,0.2,0,0.3,0c0,0,0,0,0.1,0c0,0,0,0,0,0l0.2-1.2l-0.6-0.1l0-0.2l-0.2,0l-0.1,0.4l0.2,0l0,0.3l-0.2,0l-0.1,0.4l0.2,0l0,0.2
				c0.2-0.1,0.4-0.1,0.4-0.2l0.1,0.3c-0.2,0.1-0.4,0.2-0.6,0.3l-0.1-0.3c-0.1,0-0.3,0-0.7,0.1l0-0.4c0.1,0,0.2,0,0.3,0l0.1-0.4
				l-0.2,0l0-0.3l0.2,0l0.1-0.4l-0.3,0l0-0.3l0.9,0.1l0,0.2l0.5,0.1l0.1-0.4l0.3,0l-0.1,0.4l0.3,0c-0.1-0.1-0.1-0.2-0.2-0.3l0.2-0.2
				c0.1,0.1,0.2,0.2,0.3,0.3l-0.2,0.1l0.2,0l0,0.3l-0.6-0.1l0,0.1c0,0.1,0,0.2,0,0.3c0.1-0.1,0.2-0.2,0.3-0.3l0.3,0.2
				C189.4-14.9,189.2-14.8,189.2-14.7z M188.5-14.9l-0.3,0.1c0-0.2-0.1-0.3-0.1-0.5l0.3-0.1C188.4-15.2,188.5-15.1,188.5-14.9
				L188.5-14.9z"/>
		</g>
	</g>
</g>
<g>
	<g>
		<g>
			<path class="st0" d="M122.5,25.2c-0.1,0.1-0.2,0.3-0.3,0.5c-0.4,0.7-1.1,1.8-1.8,2.5l-0.7-0.5c0.6-0.5,1.1-1.3,1.3-1.7l-3.6,0.8
				c-0.3,0.1-0.5,0.1-0.8,0.2l0-1.1c0.3,0,0.6,0,0.8-0.1l3.7-0.8c0.2,0,0.6-0.2,0.7-0.2L122.5,25.2z M119.6,26.9
				c-0.1,2-0.2,3.6-2.1,5.1l-0.8-0.6c0.2-0.1,0.5-0.3,0.7-0.6c0.9-0.9,1.1-1.8,1.2-3.1c0-0.2,0-0.5,0-0.7L119.6,26.9z"/>
			<path class="st0" d="M129,23.9c-0.1,0.2-0.1,0.4-0.2,0.6c-0.2,0.8-0.6,2.1-1.2,3.1c-0.7,1.1-1.6,2.1-2.9,2.8l-0.7-0.8
				c1.4-0.7,2.2-1.5,2.8-2.4c0.5-0.8,0.8-1.7,0.9-2.4l-3.2,0.7c-0.3,0.1-0.6,0.2-0.8,0.2l0-1.1c0.2,0,0.6-0.1,0.8-0.1l3.2-0.7
				c0.1,0,0.4-0.1,0.5-0.2L129,23.9z"/>
			<path class="st0" d="M135.9,22.5c-0.1,0.2-0.2,0.4-0.3,0.6c-0.2,0.6-0.6,1.5-1.1,2.4c0.2,0.1,0.5,0.3,0.6,0.4l-0.7,1.1
				c-0.2-0.1-0.4-0.3-0.6-0.4c-0.7,0.9-1.5,1.8-2.6,2.5l-0.8-0.6c1.2-0.7,2.1-1.5,2.7-2.3c-0.5-0.2-0.9-0.5-1.3-0.6l0.6-0.9
				c0.4,0.1,0.8,0.3,1.3,0.5c0.4-0.6,0.7-1.3,0.8-1.8l-2,0.4c-0.5,0.8-1.2,1.7-1.9,2.4l-0.7-0.5c1.3-1.1,1.9-2.3,2.3-3.1
				c0.1-0.2,0.3-0.6,0.3-0.9l1,0.1c-0.2,0.3-0.4,0.7-0.5,0.9l0,0l1.4-0.3c0.2,0,0.5-0.1,0.6-0.2L135.9,22.5z"/>
			<path class="st0" d="M137.2,23.6c0.2,0,0.8-0.1,1.1-0.2l3.7-0.8c0.3-0.1,0.6-0.2,0.8-0.2l-0.1,1.2c-0.2,0-0.5,0.1-0.8,0.1
				l-3.7,0.8c-0.4,0.1-0.9,0.2-1.1,0.3L137.2,23.6z"/>
			<path class="st0" d="M148.4,24.9c0-0.1,0-0.3,0-0.4l-3.2,0.7c-0.3,0.1-0.7,0.2-0.9,0.2l0-1.1c0.2,0,0.6-0.1,0.9-0.1l3.2-0.7
				l0.1-3.3l-3.1,0.7c-0.3,0.1-0.7,0.2-0.9,0.2l0-1.1c0.3,0,0.6-0.1,0.9-0.1l3.5-0.8c0.2,0,0.5-0.1,0.6-0.2c0,0.2,0,0.5-0.1,0.7
				l-0.2,4.1c0,0.3,0,0.7,0,0.9L148.4,24.9z"/>
			<path class="st0" d="M156.4,22c0,0.3,0,1.1,0,1.1l-1,0.2l0-0.4l-3.3,0.7l0,0.4l-1,0.2c0,0,0.1-0.7,0.1-1.1l0.2-3.8
				c0-0.2,0-0.5,0-0.8c0.3-0.1,0.5-0.1,0.7-0.1l3.8-0.9c0.2,0,0.4-0.1,0.7-0.2c0,0.2,0,0.5,0,0.8L156.4,22z M152.3,19.3l-0.1,3.3
				l3.3-0.7l0.1-3.3L152.3,19.3z"/>
			<path class="st0" d="M163.1,17c0.3-0.1,0.6-0.2,0.8-0.2l0,1.1c-0.1,0-0.5,0.1-0.8,0.1l-1.6,0.3c-0.1,1.6-0.6,3-2.1,4.3l-0.8-0.5
				c1.4-1,1.9-2.2,2-3.6l-1.8,0.4c-0.3,0.1-0.6,0.2-0.8,0.2l0-1.1c0.2,0,0.5-0.1,0.8-0.1l1.8-0.4l0-0.9c0-0.3,0-0.7,0-0.9l1.1-0.2
				c-0.1,0.3-0.1,0.7-0.1,0.9l0,0.9L163.1,17z"/>
		</g>
		<g>
			<path class="st0" d="M117,36.4c-0.1,1.3-0.2,3.2-0.9,4.6c-0.1-0.1-0.5-0.3-0.7-0.4c0.6-1.3,0.7-2.9,0.8-4l0.1-2l2.5-0.6l0-0.9
				l0.9-0.2l0,0.9l2.5-0.6l0,0.9l-5,1.1L117,36.4z M116.8,39.8c0.3-0.7,0.5-1.6,0.6-2.5l0.7,0c-0.1,0.9-0.3,2-0.6,2.7L116.8,39.8z
				 M119.9,39.2c0.2,0,0.3-0.2,0.3-1.3c0.2,0.1,0.5,0.2,0.7,0.2c-0.1,1.4-0.4,1.8-1,1.9l-0.8,0.2c-0.7,0.2-0.9-0.1-0.9-0.9l0.1-2.7
				l0.8-0.2l-0.1,2.7c0,0.3,0,0.3,0.2,0.3L119.9,39.2z M120.1,36.5c-0.3-0.3-1-0.7-1.6-0.9l0.6-0.7c0.5,0.2,1.3,0.5,1.6,0.8
				L120.1,36.5z M121.3,36.3c0.4,0.7,0.7,1.7,0.8,2.4l-0.8,0.6c-0.1-0.7-0.4-1.7-0.7-2.4L121.3,36.3z"/>
			<path class="st0" d="M124.7,36.2c-0.2,0.1-0.5,0.3-0.7,0.4l-0.1,1.7c0,0.4-0.1,0.7-0.3,0.9c-0.2,0.2-0.5,0.3-1,0.4
				c0-0.2-0.1-0.6-0.2-0.8c0.3,0,0.5-0.1,0.6-0.1c0.1,0,0.1-0.1,0.1-0.2l0.1-1.5l-0.7,0.4l-0.1-0.9c0.2-0.1,0.5-0.2,0.8-0.4l0.1-1.6
				l-0.7,0.2l0-0.9l0.7-0.2l0.1-1.5l0.8-0.2l-0.1,1.5l0.6-0.1l0,0.9l-0.6,0.1l-0.1,1.4l0.6-0.3L124.7,36.2z M128.5,35.4
				c-0.2,0.7-0.5,1.3-0.9,1.9c0.4,0.1,0.8,0.2,1.3,0.1c-0.2,0.2-0.4,0.6-0.5,0.9c-0.5,0-1-0.1-1.4-0.3c-0.4,0.4-0.9,0.7-1.3,0.9
				c-0.1-0.2-0.3-0.5-0.4-0.6c0.4-0.2,0.8-0.4,1.1-0.7c-0.2-0.1-0.4-0.3-0.5-0.5c-0.3,0.7-0.7,1.4-1.4,2c-0.1-0.2-0.3-0.4-0.5-0.6
				c0.9-0.8,1.3-1.9,1.5-3l-0.8,0.2l0-0.8l0.9-0.2c0-0.1,0-0.3,0-0.4l-0.8,0.2l0-0.7l0.4-0.1c0-0.2-0.1-0.6-0.2-0.8l0.6-0.3
				c0.1,0.3,0.2,0.6,0.3,0.8l-0.4,0.2l0.8-0.2c0-0.3-0.1-0.6-0.1-1l0.6-0.3c0.1,0.3,0.1,0.7,0.1,0.9l-0.7,0.3l0.9-0.2
				c0.2-0.4,0.5-1,0.6-1.4c-0.9,0.3-2,0.6-2.9,0.9c0-0.2-0.1-0.5-0.1-0.7c1.2-0.3,2.6-0.8,3.5-1.2l0.4,0.6c-0.3,0.1-0.6,0.2-0.9,0.3
				l0.8,0.1c-0.2,0.4-0.4,0.8-0.6,1.1l0.7-0.1l0,0.7l-2.2,0.5c0,0.1,0,0.2,0,0.4l2.4-0.5l0,0.8l-2.5,0.6c0,0.1,0,0.2-0.1,0.3
				l1.6-0.4l0.1-0.1L128.5,35.4z M126.4,36.4c0.2,0.3,0.4,0.5,0.7,0.6c0.2-0.3,0.4-0.6,0.5-0.9L126.4,36.4z"/>
			<path class="st0" d="M134.8,31.1l0.6,0.3c-0.1,0.2-0.2,0.4-0.3,0.6c-0.2,0.8-0.7,1.9-1.3,2.9c-0.7,1.1-1.6,2-2.9,2.9l-0.8-0.7
				c1.4-0.8,2.2-1.7,2.9-2.6c0.5-0.7,0.9-1.8,1.1-2.4l-2,0.4c-0.5,0.8-1.1,1.6-1.8,2.3l-0.7-0.5c1.3-1.1,1.9-2.3,2.3-3
				c0.1-0.2,0.3-0.6,0.3-0.9l1,0.1c-0.2,0.3-0.4,0.7-0.5,0.9l0,0l1.4-0.3c0.2,0,0.5-0.1,0.6-0.2L134.8,31.1
				c-0.2-0.3-0.4-0.7-0.5-0.9l0.6-0.4c0.2,0.2,0.4,0.7,0.5,1L134.8,31.1z M135.6,29.3c0.2,0.3,0.4,0.7,0.5,0.9l-0.6,0.4
				c-0.1-0.3-0.3-0.7-0.5-1L135.6,29.3z"/>
			<path class="st0" d="M136.3,35.6c0.6-0.6,1-1.4,1.3-2.1c0.2-0.7,0.3-2.2,0.3-3.2c0-0.3,0-0.5,0-0.7l1-0.2c0,0-0.1,0.4-0.1,0.7
				c0,0.9-0.1,2.6-0.4,3.4c-0.2,0.9-0.7,1.8-1.3,2.5L136.3,35.6z M139.5,35c0-0.2,0.1-0.4,0.1-0.6l0.2-4.6c0-0.4,0-0.6,0-0.7l1-0.2
				c0,0-0.1,0.3-0.1,0.7l-0.2,4.1c0.6-0.4,1.3-1.2,1.8-2l0.5,0.7c-0.6,1-1.6,2.1-2.4,2.7c-0.1,0.1-0.2,0.2-0.3,0.3L139.5,35z"/>
			<path class="st0" d="M149.1,27.3c-0.1,0.2-0.2,0.6-0.3,0.8c-0.2,0.7-0.6,1.5-1,2.4c0.6,0.4,1.1,0.9,1.6,1.4l-0.8,1.1
				c-0.5-0.5-0.9-1-1.5-1.4c-0.6,1-1.5,2-2.7,3l-0.8-0.6c1.2-0.9,2-1.8,2.7-2.9c-0.5-0.3-1.1-0.8-1.8-1.1l0.6-0.9
				c0.5,0.3,1.2,0.7,1.8,1c0.4-0.7,0.6-1.4,0.8-2c0.1-0.2,0.2-0.5,0.2-0.8L149.1,27.3z"/>
			<path class="st0" d="M155.8,26.8c0.4-0.1,0.6-0.1,0.8-0.2l0,1c-0.2,0-0.4,0.1-0.8,0.1l-0.5,0.1l0,0.3c-0.1,2-0.6,3.2-2.3,4.4
				l-0.7-0.6c1.4-0.8,2-1.6,2.1-3.6l0-0.3l-1.6,0.4l0,1.1c0,0.3,0,0.7,0,0.8l-1,0.2c0-0.2,0.1-0.5,0.1-0.8l0-1.1l-0.6,0.1
				c-0.3,0.1-0.6,0.1-0.8,0.2l0-1.1c0.1,0,0.4,0,0.7-0.1l0.6-0.1l0-0.8c0-0.3,0-0.6,0-0.7l1-0.2c0,0.2-0.1,0.4-0.1,0.7l0,0.8
				l1.6-0.4l0-0.8c0-0.3,0-0.6,0-0.7l1-0.2c0,0.2-0.1,0.4-0.1,0.7l0,0.8L155.8,26.8z"/>
			<path class="st0" d="M161.1,29.6c0,0.3,0,0.8,0,1l-1.1,0.2c0-0.2,0.1-0.7,0.1-1l0.1-2.6c-0.7,0.6-1.6,1.2-2.4,1.6l-0.5-0.8
				c1.2-0.6,2.4-1.4,3.2-2.1c0.7-0.7,1.5-1.5,1.9-2.2l0.7,0.6c-0.6,0.7-1.2,1.4-1.9,2.1L161.1,29.6z"/>
			<path class="st0" d="M169.4,26.7c-0.7-0.3-1.7-0.5-2.4-0.6l-0.1,2.2c0,0.2,0,0.8,0,1.1l-1.1,0.2c0.1-0.3,0.1-0.8,0.1-1.1l0.2-4.5
				c0-0.3,0-0.7,0-0.9l1.1-0.2c0,0.3-0.1,0.6-0.1,1l-0.1,1.2c0.9,0.1,2.2,0.4,2.8,0.6L169.4,26.7z"/>
		</g>
		<path class="st0" d="M40.4,41.3h3.9v9.3c0,0.7,0.6,1.1,1.2,1.1c0.6,0,1.2-0.3,1.2-1.1v-9.3H51c2.7,0,3.9-1,3.9-3.2v-4.1
			c0-2.2-1.2-3.2-3.9-3.2h-4.3v-6.2c0-0.7-0.6-1.1-1.2-1.1c-0.6,0-1.2,0.4-1.2,1.1v6.2h-3.9c-2.7,0-3.9,1-3.9,3.2V38
			C36.5,40.2,37.7,41.3,40.4,41.3 M39,37.6v-3.3c0-1,0.3-1.4,1.8-1.4h3.5V39h-3.5C39.2,39,39,38.7,39,37.6 M46.7,39v-6.1h3.9
			c1.5,0,1.8,0.3,1.8,1.4v3.3c0,1.3-0.5,1.4-1.8,1.4H46.7z"/>
		<path class="st0" d="M33.9,39.8c-0.6,0-1.1,0.4-1.3,1c-0.9,2.8-2.5,5.9-3.9,7.8c-0.2,0.3-0.3,0.6-0.3,0.9c0,0.7,0.5,1.2,1.2,1.2
			c0.4,0,0.9-0.2,1.3-0.7c1.5-2.2,3.2-5.7,4.1-8.4c0.1-0.2,0.1-0.4,0.1-0.6C35.1,40.2,34.4,39.8,33.9,39.8"/>
		<path class="st0" d="M30.5,26.2c0.6,0.5,1.6,1.4,2.4,2.3c0.3,0.3,0.7,0.5,1.1,0.5c0.7,0,1.2-0.6,1.2-1.3c0-0.3-0.1-0.7-0.4-1l0,0
			c-0.7-0.8-1.9-1.9-2.9-2.6C31.7,24,31.5,24,31.2,24c-0.7,0-1.3,0.6-1.3,1.2C29.9,25.6,30.1,26,30.5,26.2"/>
		<path class="st0" d="M28.1,33.5c0.7,0.5,1.9,1.5,2.7,2.4c0.4,0.4,0.7,0.5,1,0.5c0.7,0,1.2-0.6,1.2-1.3c0-0.4-0.2-0.7-0.4-1l0,0
			c-0.8-0.9-2.1-1.9-3-2.5c-0.3-0.2-0.6-0.3-0.8-0.3c-0.7,0-1.3,0.5-1.3,1.2C27.5,32.8,27.7,33.2,28.1,33.5"/>
		<path class="st0" d="M54.9,77.2c-0.6,0-1.1,0.4-1.1,0.9c-0.2,1.6-0.5,1.9-3.7,1.9c-2.5,0-2.6-0.3-2.6-0.9v-2.1h3.5
			c2.4,0,3.5-0.9,3.5-2.9v-4.6c0-2-1.1-2.9-3.5-2.9h-3.5v-1.6h2.7c2.4,0,3.5-0.9,3.5-2.9V58c0-2-1.1-2.9-3.5-2.9h-7.5
			c-2.4,0-3.5,0.9-3.5,2.9v4.3c0,2.6,1.9,2.9,3.5,2.9h2.5v1.6h-3.1c-2.4,0-3.5,0.9-3.5,2.9v4.6c0,2.6,1.9,2.9,3.5,2.9h3.1v2.5
			c0,2.1,1,2.6,4.9,2.6c4.3,0,5.6-0.9,5.9-3.8v-0.1C56.1,77.6,55.5,77.2,54.9,77.2 M47.6,75v-2.2h4.6v1.1c0,0.6-0.1,1.1-1.5,1.1
			H47.6z M47.6,70.8v-2.1h3.1c1.3,0,1.5,0.3,1.5,1.1v1H47.6z M47.6,63.1v-2h3.9v1c0,0.8-0.2,1-1.6,1H47.6z M47.6,59.1v-1.9h2.3
			c1.4,0,1.6,0.3,1.6,1v0.9H47.6z M45.3,57.2v1.9h-3.7v-0.9c0-0.7,0.2-1,1.6-1H45.3z M45.3,61.1v2h-2.1c-1.4,0-1.6-0.3-1.6-1v-1
			H45.3z M45.3,68.8v2.1h-4.2v-1c0-0.8,0.2-1.1,1.5-1.1H45.3z M45.3,72.8V75h-2.6c-1.2,0-1.5-0.2-1.5-1.1v-1.1H45.3z"/>
		<path class="st0" d="M35.9,65.1c-0.2-0.3-0.5-0.5-0.8-0.5c-0.6,0-1.1,0.5-1.1,1c0,0.2,0.1,0.4,0.2,0.6c0.1,0.2,0.2,0.3,0.3,0.5
			c0.1,0.1,0.1,0.2,0.2,0.3c-1,0.1-2,0.2-2.9,0.3c1.7-2.4,3.5-5.1,4.6-7.3c0.1-0.2,0.2-0.4,0.2-0.7c0-0.7-0.6-1.2-1.2-1.2
			c-0.5,0-0.9,0.3-1,0.7c-0.4,0.8-1,2.1-1.8,3.4c-0.1-0.1-0.2-0.3-0.3-0.4c-0.3-0.3-0.5-0.7-0.8-1c0.9-1.6,1.7-3.4,2.4-5.2
			c0.1-0.2,0.1-0.3,0.1-0.5c0-0.7-0.6-1.1-1.2-1.1c-0.5,0-0.9,0.3-1.1,0.8c-0.6,1.6-1.2,3.1-1.8,4.3c0,0-0.1-0.1-0.1-0.1
			c-0.1-0.1-0.2-0.2-0.3-0.2c-0.2-0.2-0.5-0.3-0.8-0.3c-0.6,0-1.1,0.5-1.1,1.1c0,0.2,0.1,0.6,0.5,1c0.8,0.7,1.9,2,3.2,3.7
			c-0.7,1.1-1.4,2.1-2,3l0,0c-0.5,0-1,0.1-1.5,0.1c-0.7,0-1.1,0.5-1.1,1.1c0,0.6,0.3,1.1,1.1,1.1c0.6,0,2.3-0.1,3.5-0.2v12.2
			c0,0.7,0.6,1.1,1.2,1.1c0.6,0,1.1-0.4,1.1-1.1V69.2l0.2,0c0.6-0.1,1.2-0.2,1.8-0.3l0.3,0.9c0.2,0.5,0.6,0.8,1,0.8
			c0.6,0,1.2-0.5,1.2-1.2c0-0.2,0-0.3-0.1-0.5C37.6,67.7,36.8,66.3,35.9,65.1"/>
		<path class="st0" d="M29.3,71.5c-0.5,0-1.1,0.3-1.1,1.1c-0.1,1.7-0.6,4.1-1.2,5.6c-0.1,0.2-0.1,0.3-0.1,0.5c0,0.6,0.5,1,1.1,1
			c0.5,0,0.9-0.3,1.1-0.8c0.7-1.8,1.3-4.9,1.3-6.2C30.4,71.9,29.8,71.5,29.3,71.5"/>
		<path class="st0" d="M36.2,71.7c-0.2-0.4-0.6-0.6-1-0.6c-0.6,0-1,0.5-1,1c0,0.2,0.1,0.3,0.1,0.5c0.5,1,1,2.5,1.2,3.8
			c0.1,0.6,0.5,1,1.1,1c0.6,0,1.2-0.4,1.2-1.2c0-0.1,0-0.2,0-0.4C37.5,74.4,36.8,72.7,36.2,71.7"/>
		<path class="st0" d="M161.6,46.5c0-0.7-0.5-1.2-1.2-1.2h0c-0.7,0-1.2,0.5-1.2,1.2l0,4.6c0,8.4-0.5,14.3-7.8,19.5
			c-0.5,0.4-0.7,1.1-0.3,1.6c0.2,0.3,0.6,0.5,1,0.5c0.2,0,0.5-0.1,0.7-0.2c8.1-5.8,8.8-12.5,8.8-21.4L161.6,46.5z"/>
		<path class="st0" d="M159.9,72.3c0,0,0.2,0,0.6,0c0.7,0,2-0.1,3.8-0.4c3.5-0.6,5.1-2.9,6-8.4c0.5-3.2,0.5-4.9,0.5-7.1
			c0-0.5,0-1,0-1.5c0-1-0.4-2-1.1-2.7c-0.7-0.7-1.7-1.1-2.7-1.1l-3.2,0h0c-0.7,0-1.2,0.5-1.2,1.2c0,0.7,0.5,1.2,1.2,1.2l3.2,0
			c0.4,0,0.8,0.2,1,0.4c0.3,0.3,0.4,0.6,0.4,1c0,0.6,0,1.1,0,1.5c0,2.1,0,3.7-0.5,6.7c-0.8,5.4-2.4,6.1-4,6.4
			c-2.4,0.4-3.8,0.3-3.8,0.3c-0.7-0.1-1.2,0.4-1.3,1.1C158.8,71.7,159.3,72.2,159.9,72.3"/>
		<path class="st0" d="M189.4,37.6l5.4-1.1c0.6-0.1,1.1-0.8,0.9-1.4c-0.1-0.6-0.7-1.1-1.4-0.9l-15.9,3.2c1.7-3.4,2.6-7.5,2.8-12.3
			c0-0.7-0.5-1.2-1.1-1.2c-0.7,0-1.2,0.5-1.2,1.1c-0.3,7.7-2.7,13.4-7.1,17c-0.5,0.4-0.6,1.2-0.2,1.7c0.2,0.3,0.6,0.4,0.9,0.4
			c0.3,0,0.5-0.1,0.7-0.3c1.3-1.1,2.5-2.3,3.5-3.7c0,0,0,0,0,0l10.1-2c-0.6,2.3-2.2,7-5.8,12.1c-4.1,5.8-7.9,7.4-7.9,7.4
			c-0.6,0.2-0.9,0.9-0.7,1.5c0.2,0.5,0.6,0.8,1.1,0.8c0.1,0,0.3,0,0.4-0.1c0.1-0.1,3-1.2,6.6-5.2v27.3c0,0.7,0.5,1.2,1.2,1.2
			c0.7,0,1.2-0.5,1.2-1.2v-30c0-0.1,0-0.1,0-0.2c0,0,0-0.1,0.1-0.1C187.4,45.2,189,39.5,189.4,37.6"/>
		<path class="st0" d="M213.3,70.6c-0.1,0-10.2-1-16.9-8.1c-2.4-2.6-4.2-4.9-5.4-6.7c2.7-1.7,5.3-5,6.4-7.3c0.3-0.6,0-1.3-0.6-1.6
			c-0.6-0.3-1.3,0-1.6,0.6c-0.9,1.9-3.2,4.8-5.5,6.3c-1.1-1.9-1.4-3-1.4-3.1c-0.2-0.6-0.8-1-1.5-0.8c-0.6,0.2-1,0.8-0.8,1.5
			c0.1,0.2,1.5,5.1,8.6,12.7c7.3,7.8,17.9,8.8,18.4,8.8c0,0,0.1,0,0.1,0c0.6,0,1.1-0.5,1.2-1.1C214.4,71.2,213.9,70.6,213.3,70.6"/>
		<path class="st0" d="M89.3,46.2c0.9,0.7,1.9,1.1,3,1.1c0.3,0,0.6,0,0.9-0.1l4.1-0.9c1.8-0.4,3.7-2.1,3.7-4.3l0.1-6.4
			c0-2.2-1.8-3.9-3.7-4.3l-4-0.9c-1.3-0.3-2.8,0.1-3.9,1c-1.2,0.9-1.8,2.3-1.9,3.7v0l-0.1,7.4C87.5,43.9,88.2,45.2,89.3,46.2
			 M89.1,35.1c0-1,0.5-1.9,1.3-2.5c0.8-0.6,1.7-0.8,2.6-0.7l4,0.9c1.2,0.3,2.5,1.4,2.4,2.8L99.4,42c0,1.4-1.3,2.5-2.4,2.8l-4,0.9
			c-0.9,0.2-1.8-0.1-2.6-0.7c-0.8-0.6-1.2-1.6-1.3-2.5L89.1,35.1z"/>
		<path class="st0" d="M106.4,44.1c0.1,0,0.1,0,0.2,0l0.7-0.2c0.5-0.1,0.9-0.6,0.9-1l0-1c0-0.5-0.4-0.9-0.9-1l-0.7-0.2
			c-0.3-0.1-0.7,0-0.9,0.2c-0.3,0.2-0.4,0.5-0.4,0.9l0,1.2c0,0.3,0.2,0.7,0.4,0.9C105.9,44,106.1,44.1,106.4,44.1"/>
		<path class="st0" d="M106.7,38.2L106.7,38.2c0.4,0,0.8-0.4,0.8-0.8l0-13.1c0-0.4-0.4-0.8-0.8-0.8h0c-0.4,0-0.8,0.4-0.8,0.8l0,13.1
			C105.9,37.9,106.2,38.2,106.7,38.2"/>
		<path class="st0" d="M64.8,51.1c1.2,1,2.6,1.5,4,1.5c0.4,0,0.8,0,1.2-0.1l5.6-1.2c2.4-0.6,5-2.9,4.9-5.8v-4.1h3.3
			c0.4,0,0.8-0.4,0.8-0.8c0-0.4-0.4-0.8-0.8-0.8H71.2c-0.4,0-0.8,0.4-0.8,0.8c0,0.4,0.4,0.8,0.8,0.8h7.7v4.2c0,2.1-1.9,3.8-3.7,4.2
			l-5.5,1.2c-1.3,0.3-2.8-0.1-3.9-1c-1.2-1-1.9-2.3-1.9-3.8L64,31.3c0-1.5,0.7-2.8,1.9-3.8c1.1-0.9,2.6-1.3,3.9-1l5.5,1.2
			c2,0.5,3.6,2.3,3.6,4.3v4.1c0,0.4,0.4,0.8,0.8,0.8c0.4,0,0.8-0.4,0.8-0.8v-4.1c0-2.6-2.1-5.2-4.8-5.8L70.1,25
			c-1.8-0.4-3.7,0.1-5.2,1.3c-1.6,1.2-2.5,3.1-2.5,5l-0.1,14.7C62.3,48,63.2,49.8,64.8,51.1"/>
		<path class="st0" d="M174.6,77.2l-30.8,0.6l0-32c0,0,0-0.1,0-0.1l7.1-1.4h0l20.4-4c0.1,0,0.2-0.1,0.3-0.2c0.1-0.1,0.1-0.2,0.1-0.3
			l-0.8-4.1c0-0.1-0.1-0.2-0.2-0.3c-0.1-0.1-0.2-0.1-0.3-0.1l-8.7,1.9l0-2.3c0-0.7-0.5-1.2-1.2-1.2h0c-0.7,0-1.2,0.5-1.2,1.2l0,2.8
			l-9.2,2l0,0L60.6,59.5c-0.2,0-0.3,0.3-0.3,0.5l0.4,1.8c0,0.2,0.2,0.3,0.4,0.3c0,0,0.1,0,0.1,0l13.3-2.6v19.7l-13.2,0.3
			c-0.2,0-0.4,0.2-0.4,0.4l0,1.8c0,0.2,0.2,0.4,0.4,0.4l113.4,0.1c0.1,0,0.2,0,0.3-0.1c0.1-0.1,0.1-0.2,0.1-0.3l0-4.2
			c0-0.1,0-0.2-0.1-0.3C174.8,77.2,174.7,77.2,174.6,77.2 M61.3,61.2l-0.2-1l88.7-19.5l0.6,2.9L61.3,61.2z M122.4,50l19.9-3.9
			l0,29.7L122.4,50z M141.8,77.9l-19.6,0.4c0,0,0,0,0,0l0-25.8L141.8,77.9z M108.8,68.7l7.4,9.7l-16.8,0.3v-10L108.8,68.7z
			 M99.4,67.1V56.6l8.1,10.6L99.4,67.1z M99.8,54.5l20.9-4.1l0,27.9c0,0,0,0,0,0.1l-2.6,0.1c0,0,0-0.1,0-0.1L99.8,54.5z M97.9,54.8
			v23.9l-7.6,0.2V56.3L97.9,54.8z M76,67.5v-8.4l12.7-2.5v10.9L76,67.5z M88.7,69.1v9.8L76,79.2V69.1L88.7,69.1z M154,81.4
			l-92.4-0.1v-1l92.4-1.9V81.4z"/>
	</g>
</g>
</svg>
